<svg xmlns="http://www.w3.org/2000/svg" width="1200" height="600" fill="none"><g clip-path="url(#a)"><path fill="url(#b)" d="M0 0h1200v600H0z"/><path fill="#fff" d="M295.082 202.875c6.966 0 12.858-.228 17.676-.684 4.818-.52 8.691-1.692 11.621-3.515 2.995-1.888 5.143-4.688 6.445-8.399 1.367-3.711 2.051-8.789 2.051-15.234 0-6.576-.684-11.751-2.051-15.527-1.302-3.776-3.45-6.608-6.445-8.496-2.93-1.954-6.803-3.158-11.621-3.614-4.818-.521-10.71-.781-17.676-.781-6.185 0-11.491.13-15.918.391-4.427.195-8.138.651-11.133 1.367-2.929.651-5.273 1.627-7.031 2.929-1.758 1.303-3.125 2.995-4.102 5.079-.911 2.083-1.497 4.622-1.757 7.617-.261 2.995-.391 6.575-.391 10.742 0 4.167.13 7.747.391 10.742.26 2.995.846 5.534 1.757 7.617.977 2.084 2.344 3.776 4.102 5.079 1.758 1.302 4.102 2.311 7.031 3.027 2.995.651 6.706 1.107 11.133 1.367 4.427.195 9.733.293 15.918.293Zm97.168-18.75c0 6.25-.391 11.556-1.172 15.918-.781 4.362-2.311 7.91-4.59 10.645-2.278 2.734-5.468 4.72-9.57 5.957-4.036 1.237-9.375 1.855-16.016 1.855-4.752 0-8.561-.618-11.425-1.855-2.865-1.303-5.079-2.865-6.641-4.688-1.563-1.888-2.604-3.906-3.125-6.055-.456-2.213-.684-4.264-.684-6.152-1.627 3.516-4.264 6.641-7.91 9.375-1.562 1.172-3.45 2.344-5.664 3.516-2.148 1.106-4.72 2.116-7.715 3.027-2.929.846-6.282 1.53-10.058 2.051-3.711.521-7.91.781-12.598.781-8.268 0-15.495-.293-21.68-.879-6.119-.651-11.36-1.66-15.722-3.027-4.362-1.367-7.943-3.158-10.742-5.371-2.8-2.214-5.014-4.948-6.641-8.203-1.628-3.256-2.767-7.032-3.418-11.329-.586-4.362-.879-9.342-.879-14.941s.293-10.547.879-14.844c.651-4.362 1.79-8.17 3.418-11.426 1.627-3.255 3.841-5.989 6.641-8.203 2.799-2.213 6.38-4.004 10.742-5.371 4.362-1.367 9.603-2.344 15.722-2.929 6.185-.651 13.412-.977 21.68-.977 4.036 0 7.65.228 10.84.684 3.255.455 6.152 1.041 8.691 1.757 2.539.717 4.753 1.563 6.641 2.539 1.888.912 3.516 1.856 4.883 2.832 3.125 2.279 5.371 4.883 6.738 7.813v-12.5h18.75v50c0 4.036.098 7.292.293 9.766.195 2.408.586 4.297 1.172 5.664.651 1.302 1.595 2.181 2.832 2.636 1.237.456 2.897.684 4.98.684 2.735 0 4.916-.228 6.543-.684 1.693-.455 2.963-1.334 3.809-2.636.911-1.367 1.497-3.256 1.758-5.664.325-2.474.488-5.73.488-9.766V156c0-6.25-.423-11.654-1.27-16.211-.781-4.622-2.213-8.561-4.296-11.816-2.084-3.256-4.948-5.892-8.594-7.911-3.581-2.018-8.138-3.613-13.672-4.785-5.534-1.172-12.175-1.953-19.922-2.343-7.747-.456-16.829-.684-27.246-.684-11.458 0-21.419.163-29.883.488-8.463.326-15.722 1.172-21.777 2.539-5.99 1.302-10.905 3.288-14.746 5.957-3.841 2.67-6.869 6.315-9.082 10.938-2.149 4.622-3.646 10.417-4.492 17.383-.782 6.901-1.172 15.299-1.172 25.195 0 9.375.423 17.448 1.269 24.219.847 6.705 2.344 12.37 4.492 16.992 2.214 4.622 5.241 8.333 9.082 11.133 3.842 2.799 8.757 4.948 14.747 6.445 5.989 1.497 13.216 2.474 21.679 2.93 8.464.521 39.225.781 92.285.781v15.625H298.5c-14.583 0-27.181-.716-37.793-2.148-10.612-1.368-19.629-3.484-27.051-6.348-7.357-2.8-13.346-6.348-17.968-10.645a45.226 45.226 0 0 1-10.743-15.136c-2.539-5.795-4.264-12.338-5.175-19.629-.847-7.292-1.27-15.365-1.27-24.219 0-10.417.423-19.564 1.27-27.441.911-7.943 2.636-14.812 5.175-20.606 2.539-5.794 6.12-10.612 10.743-14.453 4.622-3.841 10.611-6.901 17.968-9.18 7.422-2.343 16.439-4.004 27.051-4.98 10.612-.977 23.21-1.465 37.793-1.465 12.5 0 23.503.456 33.008 1.367 9.505.912 17.708 2.344 24.609 4.297 6.966 1.953 12.761 4.492 17.383 7.617s8.301 6.901 11.035 11.328c2.8 4.362 5.371 25.326 7.715 62.891Zm62.5-51.367V231H436v-98.242h-18.75V118.5H436v-.977c0-7.617.846-13.964 2.539-19.042 1.693-5.079 4.492-9.148 8.399-12.208 3.906-3.06 9.049-5.208 15.429-6.445 6.445-1.302 14.356-1.953 23.731-1.953h21.777V93.5H486c-5.924 0-10.872.13-14.844.39-3.971.261-7.194 1.14-9.668 2.637-2.409 1.498-4.134 3.874-5.176 7.129-1.041 3.255-1.562 7.878-1.562 13.867v.977h53.125v14.258H454.75Zm62.5 41.211c0-11.524 1.237-21.061 3.711-28.614 2.474-7.552 6.445-13.541 11.914-17.968 5.469-4.427 12.565-7.52 21.289-9.278 8.724-1.823 19.336-2.734 31.836-2.734s23.112.911 31.836 2.734c8.724 1.758 15.82 4.851 21.289 9.278 5.469 4.427 9.44 10.416 11.914 17.968 2.474 7.553 3.711 17.09 3.711 28.614 0 11.523-1.237 21.093-3.711 28.711-2.474 7.617-6.445 13.672-11.914 18.164-5.469 4.492-12.565 7.682-21.289 9.57-8.724 1.823-19.336 2.734-31.836 2.734s-23.112-.911-31.836-2.734c-8.724-1.888-15.82-5.078-21.289-9.57-5.469-4.492-9.44-10.547-11.914-18.164-2.474-7.618-3.711-17.188-3.711-28.711Zm18.75 0c0 6.25.228 11.686.684 16.308.455 4.623 1.302 8.594 2.539 11.914 1.302 3.321 3.092 6.023 5.371 8.106 2.278 2.083 5.273 3.743 8.984 4.98 3.711 1.237 8.203 2.084 13.477 2.539 5.338.456 11.653.684 18.945.684 6.25 0 11.816-.13 16.699-.391 4.948-.325 9.245-1.009 12.891-2.05 3.711-1.042 6.868-2.507 9.472-4.395 2.605-1.953 4.688-4.59 6.25-7.91 1.628-3.32 2.8-7.389 3.516-12.207.781-4.883 1.172-10.742 1.172-17.578 0-6.706-.391-12.403-1.172-17.09-.716-4.753-1.888-8.724-3.516-11.914-1.562-3.19-3.645-5.697-6.25-7.52-2.604-1.888-5.761-3.287-9.472-4.199-3.646-.976-7.943-1.595-12.891-1.855C597.816 131.13 592.25 131 586 131c-6.25 0-11.849.13-16.797.391-4.883.26-9.18.879-12.891 1.855-3.645.912-6.77 2.311-9.374 4.199-2.605 1.823-4.721 4.33-6.348 7.52-1.563 3.19-2.735 7.161-3.516 11.914-.716 4.687-1.074 10.384-1.074 17.09ZM789.125 231v-62.5c0-6.966-.521-12.826-1.563-17.578-1.041-4.818-3.124-8.692-6.25-11.621-3.124-2.93-7.552-5.046-13.281-6.348-5.729-1.302-13.281-1.953-22.656-1.953-10.156 0-18.49.749-25 2.246-6.445 1.497-11.523 3.613-15.234 6.348-3.711 2.734-6.283 6.022-7.715 9.863-1.367 3.841-2.051 8.105-2.051 12.793V231h-18.75V118.5h18.75v18.75c1.367-3.19 3.32-5.924 5.859-8.203 2.539-2.344 5.404-4.33 8.594-5.957 3.19-1.628 6.641-2.93 10.352-3.906a84.74 84.74 0 0 1 11.132-2.344c3.711-.586 7.292-.977 10.743-1.172 3.515-.195 6.705-.293 9.57-.293 8.333 0 15.495.521 21.484 1.563 6.055 1.041 11.166 2.571 15.332 4.589 4.232 2.019 7.618 4.525 10.157 7.52 2.539 2.995 4.492 6.478 5.859 10.449 1.432 3.906 2.376 8.301 2.832 13.184.456 4.817.684 10.091.684 15.82l-.098 62.5h-18.75Zm153.32-50c0 9.57-.781 17.578-2.343 24.023-1.563 6.381-4.2 11.491-7.911 15.332-3.645 3.842-8.463 6.576-14.453 8.204-5.989 1.627-13.379 2.441-22.168 2.441-8.528 0-15.69-.651-21.484-1.953-5.794-1.302-10.482-3.516-14.063-6.641-3.58-3.125-6.152-7.291-7.714-12.5-1.563-5.208-2.344-11.718-2.344-19.531V133.93H826.82V118.5h23.145V87.738h18.75V118.5h70.605v15.43h-70.605v56.445c0 6.25.456 11.068 1.367 14.453.977 3.386 2.507 5.86 4.59 7.422 2.083 1.562 4.818 2.474 8.203 2.734 3.451.261 7.65.391 12.598.391 3.906 0 7.389-.065 10.449-.195 3.125-.131 5.827-.521 8.105-1.172 2.344-.716 4.33-1.758 5.957-3.125 1.628-1.432 2.93-3.418 3.907-5.957 1.041-2.539 1.79-5.729 2.246-9.571.455-3.906.683-8.691.683-14.355h15.625Zm25-15.625h75.005V181h-75.005v-15.625Z"/><path fill="#D69862" d="M732.471 264.077s16.351 19.185 23.982 60.164c0 0-11.318-2.398-14.61 23.761-3.293 26.159 24.197 49.483 24.197 49.483s7.852 6.106-13.732 25.286c0 0-3.923 1.746 2.183 17.245 2.215 5.616 2.042 9.199.9 11.694-1.832 3.994-6.214 3.843-7.443 8.359a19.212 19.212 0 0 0-.361 5.594c.194 2.307.717 3.233.539 5.001a9.088 9.088 0 0 1-1.994 4.683 23.743 23.743 0 0 0-3.142 5.26c-2.753 6.397-1.821 12.255-1.584 14.998 1.002 11.662-5.518 22.785-7.405 24.655-8.223 8.149-25.695 10.736-63.01-1.988-66.485-22.667-118.367-21.799-118.367-21.799l-25.07-60.623-47.511-92.645 161.308-115.748 67.364-1.961 25.944 20.053-2.188 18.528Z"/><path fill="#D09059" d="M670.997 518.25s-13.295 8.084-15.693 21.363c-2.399 13.279-6.322 3.492-6.322 3.492l-139.077-10.687s15.698-32.475 11.554-61.905l-1.31-61.474s-3.05-10.029 33.575 20.274c0 0 0 47.958 117.273 88.937Z"/><path fill="#B39363" d="M732.471 264.076s-24.413-27.818-40.543-26.078c0 0-40.957 7.335-53.191 26.078-12.233 18.744-2.629 31.829-9.598 35.315-6.968 3.487-33.563 7.411-34.873 18.324-1.309 10.913-.426 44.455-4.36 48.378-5.351 5.351-16.463 4.85-23.243 1.978-1.708-.722-4.511-2.889-10.11-7.211-10.859-8.396-11.797-10.175-15.693-11.118-7.545-1.827-14.254 2.328-15.041 2.835-9.469 6.036-10.455 17.617-10.682 20.479-.539 7.006 1.493 12.675 3.924 19.401 2.727 7.544 5.066 9.996 6.542 17.439a42.14 42.14 0 0 1 .873 11.57c-1.751 20.064 5.928 44.45.221 46.428-2.608.905-6.117-2.695-8.94-5.885-26.197-29.818-23.864-63.258-46.649-80.438-4.392-3.309-12.174-7.869-25.065-9.372 0 0-2.182-46.212 0-53.622 2.183-7.41-3.923-35.752-16.135-60.165 0 0 14.389-41.421 42.725-26.159 0 0 12.212 5.018 28.778-3.379 16.566-8.396 21.357-62.018 21.357-62.018s21.8 16.545 17.003 36.183c0 0 78.477-27.226 100.707-33.133 22.23-5.906 98.083 14.826 103.763 87.197l-11.77 6.973Z"/><path fill="#2E2A26" d="M487.89 533.512s61.474-10.466 66.701 0c0 0 95.927-3.923 103.763 10.46 0 0-6.537 14.826-5.228 20.926 1.31 6.101-5.232 35.752-5.232 35.752H473.937s-3.88-10.132 8.504-24.849c15.042-17.855 5.47-42.515 5.449-42.289Z"/></g><defs><radialGradient id="b" cx="0" cy="0" r="1" gradientTransform="matrix(0 342.5 -685 0 600 480)" gradientUnits="userSpaceOnUse"><stop stop-color="#00FFE0"/><stop offset="1" stop-color="#543BEA"/></radialGradient><clipPath id="a"><path fill="#fff" d="M0 0h1200v600H0z"/></clipPath></defs></svg>