<svg width="1200" height="600" viewBox="0 0 1200 600" fill="none" xmlns="http://www.w3.org/2000/svg">
<g clip-path="url(#clip0_82_134)">
<rect width="1200" height="600" fill="url(#paint0_radial_82_134)"/>
<path d="M295.082 202.875C302.048 202.875 307.94 202.647 312.758 202.191C317.576 201.671 321.449 200.499 324.379 198.676C327.374 196.788 329.522 193.988 330.824 190.277C332.191 186.566 332.875 181.488 332.875 175.043C332.875 168.467 332.191 163.292 330.824 159.516C329.522 155.74 327.374 152.908 324.379 151.02C321.449 149.066 317.576 147.862 312.758 147.406C307.94 146.885 302.048 146.625 295.082 146.625C288.897 146.625 283.591 146.755 279.164 147.016C274.737 147.211 271.026 147.667 268.031 148.383C265.102 149.034 262.758 150.01 261 151.312C259.242 152.615 257.875 154.307 256.898 156.391C255.987 158.474 255.401 161.013 255.141 164.008C254.88 167.003 254.75 170.583 254.75 174.75C254.75 178.917 254.88 182.497 255.141 185.492C255.401 188.487 255.987 191.026 256.898 193.109C257.875 195.193 259.242 196.885 261 198.188C262.758 199.49 265.102 200.499 268.031 201.215C271.026 201.866 274.737 202.322 279.164 202.582C283.591 202.777 288.897 202.875 295.082 202.875ZM392.25 184.125C392.25 190.375 391.859 195.681 391.078 200.043C390.297 204.405 388.767 207.953 386.488 210.688C384.21 213.422 381.02 215.408 376.918 216.645C372.882 217.882 367.543 218.5 360.902 218.5C356.15 218.5 352.341 217.882 349.477 216.645C346.612 215.342 344.398 213.78 342.836 211.957C341.273 210.069 340.232 208.051 339.711 205.902C339.255 203.689 339.027 201.638 339.027 199.75C337.4 203.266 334.763 206.391 331.117 209.125C329.555 210.297 327.667 211.469 325.453 212.641C323.305 213.747 320.733 214.757 317.738 215.668C314.809 216.514 311.456 217.198 307.68 217.719C303.969 218.24 299.77 218.5 295.082 218.5C286.814 218.5 279.587 218.207 273.402 217.621C267.283 216.97 262.042 215.961 257.68 214.594C253.318 213.227 249.737 211.436 246.938 209.223C244.138 207.009 241.924 204.275 240.297 201.02C238.669 197.764 237.53 193.988 236.879 189.691C236.293 185.329 236 180.349 236 174.75C236 169.151 236.293 164.203 236.879 159.906C237.53 155.544 238.669 151.736 240.297 148.48C241.924 145.225 244.138 142.491 246.938 140.277C249.737 138.064 253.318 136.273 257.68 134.906C262.042 133.539 267.283 132.562 273.402 131.977C279.587 131.326 286.814 131 295.082 131C299.118 131 302.732 131.228 305.922 131.684C309.177 132.139 312.074 132.725 314.613 133.441C317.152 134.158 319.366 135.004 321.254 135.98C323.142 136.892 324.77 137.836 326.137 138.812C329.262 141.091 331.508 143.695 332.875 146.625V134.125H351.625V184.125C351.625 188.161 351.723 191.417 351.918 193.891C352.113 196.299 352.504 198.188 353.09 199.555C353.741 200.857 354.685 201.736 355.922 202.191C357.159 202.647 358.819 202.875 360.902 202.875C363.637 202.875 365.818 202.647 367.445 202.191C369.138 201.736 370.408 200.857 371.254 199.555C372.165 198.188 372.751 196.299 373.012 193.891C373.337 191.417 373.5 188.161 373.5 184.125V156C373.5 149.75 373.077 144.346 372.23 139.789C371.449 135.167 370.017 131.228 367.934 127.973C365.85 124.717 362.986 122.081 359.34 120.062C355.759 118.044 351.202 116.449 345.668 115.277C340.134 114.105 333.493 113.324 325.746 112.934C317.999 112.478 308.917 112.25 298.5 112.25C287.042 112.25 277.081 112.413 268.617 112.738C260.154 113.064 252.895 113.91 246.84 115.277C240.85 116.579 235.935 118.565 232.094 121.234C228.253 123.904 225.225 127.549 223.012 132.172C220.863 136.794 219.366 142.589 218.52 149.555C217.738 156.456 217.348 164.854 217.348 174.75C217.348 184.125 217.771 192.198 218.617 198.969C219.464 205.674 220.961 211.339 223.109 215.961C225.323 220.583 228.35 224.294 232.191 227.094C236.033 229.893 240.948 232.042 246.938 233.539C252.927 235.036 260.154 236.013 268.617 236.469C277.081 236.99 307.842 237.25 360.902 237.25V252.875H298.5C283.917 252.875 271.319 252.159 260.707 250.727C250.095 249.359 241.078 247.243 233.656 244.379C226.299 241.579 220.31 238.031 215.688 233.734C211.065 229.438 207.484 224.392 204.945 218.598C202.406 212.803 200.681 206.26 199.77 198.969C198.923 191.677 198.5 183.604 198.5 174.75C198.5 164.333 198.923 155.186 199.77 147.309C200.681 139.366 202.406 132.497 204.945 126.703C207.484 120.909 211.065 116.091 215.688 112.25C220.31 108.409 226.299 105.349 233.656 103.07C241.078 100.727 250.095 99.0664 260.707 98.0898C271.319 97.1133 283.917 96.625 298.5 96.625C311 96.625 322.003 97.0807 331.508 97.9922C341.013 98.9036 349.216 100.336 356.117 102.289C363.083 104.242 368.878 106.781 373.5 109.906C378.122 113.031 381.801 116.807 384.535 121.234C387.335 125.596 389.906 146.56 392.25 184.125ZM454.75 132.758V231H436V132.758H417.25V118.5H436V117.523C436 109.906 436.846 103.559 438.539 98.4805C440.232 93.4023 443.031 89.3333 446.938 86.2734C450.844 83.2135 455.987 81.0651 462.367 79.8281C468.812 78.526 476.723 77.875 486.098 77.875H507.875V93.5H486C480.076 93.5 475.128 93.6302 471.156 93.8906C467.185 94.151 463.962 95.0299 461.488 96.5273C459.079 98.0247 457.354 100.401 456.312 103.656C455.271 106.911 454.75 111.534 454.75 117.523V118.5H507.875V132.758H454.75ZM517.25 173.969C517.25 162.445 518.487 152.908 520.961 145.355C523.435 137.803 527.406 131.814 532.875 127.387C538.344 122.96 545.44 119.867 554.164 118.109C562.888 116.286 573.5 115.375 586 115.375C598.5 115.375 609.112 116.286 617.836 118.109C626.56 119.867 633.656 122.96 639.125 127.387C644.594 131.814 648.565 137.803 651.039 145.355C653.513 152.908 654.75 162.445 654.75 173.969C654.75 185.492 653.513 195.062 651.039 202.68C648.565 210.297 644.594 216.352 639.125 220.844C633.656 225.336 626.56 228.526 617.836 230.414C609.112 232.237 598.5 233.148 586 233.148C573.5 233.148 562.888 232.237 554.164 230.414C545.44 228.526 538.344 225.336 532.875 220.844C527.406 216.352 523.435 210.297 520.961 202.68C518.487 195.062 517.25 185.492 517.25 173.969ZM536 173.969C536 180.219 536.228 185.655 536.684 190.277C537.139 194.9 537.986 198.871 539.223 202.191C540.525 205.512 542.315 208.214 544.594 210.297C546.872 212.38 549.867 214.04 553.578 215.277C557.289 216.514 561.781 217.361 567.055 217.816C572.393 218.272 578.708 218.5 586 218.5C592.25 218.5 597.816 218.37 602.699 218.109C607.647 217.784 611.944 217.1 615.59 216.059C619.301 215.017 622.458 213.552 625.062 211.664C627.667 209.711 629.75 207.074 631.312 203.754C632.94 200.434 634.112 196.365 634.828 191.547C635.609 186.664 636 180.805 636 173.969C636 167.263 635.609 161.566 634.828 156.879C634.112 152.126 632.94 148.155 631.312 144.965C629.75 141.775 627.667 139.268 625.062 137.445C622.458 135.557 619.301 134.158 615.59 133.246C611.944 132.27 607.647 131.651 602.699 131.391C597.816 131.13 592.25 131 586 131C579.75 131 574.151 131.13 569.203 131.391C564.32 131.651 560.023 132.27 556.312 133.246C552.667 134.158 549.542 135.557 546.938 137.445C544.333 139.268 542.217 141.775 540.59 144.965C539.027 148.155 537.855 152.126 537.074 156.879C536.358 161.566 536 167.263 536 173.969ZM789.125 231V168.5C789.125 161.534 788.604 155.674 787.562 150.922C786.521 146.104 784.438 142.23 781.312 139.301C778.188 136.371 773.76 134.255 768.031 132.953C762.302 131.651 754.75 131 745.375 131C735.219 131 726.885 131.749 720.375 133.246C713.93 134.743 708.852 136.859 705.141 139.594C701.43 142.328 698.858 145.616 697.426 149.457C696.059 153.298 695.375 157.562 695.375 162.25V231H676.625V118.5H695.375V137.25C696.742 134.06 698.695 131.326 701.234 129.047C703.773 126.703 706.638 124.717 709.828 123.09C713.018 121.462 716.469 120.16 720.18 119.184C723.891 118.142 727.602 117.361 731.312 116.84C735.023 116.254 738.604 115.863 742.055 115.668C745.57 115.473 748.76 115.375 751.625 115.375C759.958 115.375 767.12 115.896 773.109 116.938C779.164 117.979 784.275 119.509 788.441 121.527C792.673 123.546 796.059 126.052 798.598 129.047C801.137 132.042 803.09 135.525 804.457 139.496C805.889 143.402 806.833 147.797 807.289 152.68C807.745 157.497 807.973 162.771 807.973 168.5L807.875 231H789.125ZM942.445 181C942.445 190.57 941.664 198.578 940.102 205.023C938.539 211.404 935.902 216.514 932.191 220.355C928.546 224.197 923.728 226.931 917.738 228.559C911.749 230.186 904.359 231 895.57 231C887.042 231 879.88 230.349 874.086 229.047C868.292 227.745 863.604 225.531 860.023 222.406C856.443 219.281 853.871 215.115 852.309 209.906C850.746 204.698 849.965 198.188 849.965 190.375V133.93H826.82V118.5H849.965V87.7383H868.715V118.5H939.32V133.93H868.715V190.375C868.715 196.625 869.171 201.443 870.082 204.828C871.059 208.214 872.589 210.688 874.672 212.25C876.755 213.812 879.49 214.724 882.875 214.984C886.326 215.245 890.525 215.375 895.473 215.375C899.379 215.375 902.862 215.31 905.922 215.18C909.047 215.049 911.749 214.659 914.027 214.008C916.371 213.292 918.357 212.25 919.984 210.883C921.612 209.451 922.914 207.465 923.891 204.926C924.932 202.387 925.681 199.197 926.137 195.355C926.592 191.449 926.82 186.664 926.82 181H942.445ZM967.445 165.375H1042.45V181H967.445V165.375Z" fill="white"/>
<path d="M365.5 599.999C341.5 612.499 362 637.999 362 637.999L772 644L782 600L719 571.5C677.873 554.876 674.064 532.311 679 484C695.202 462.272 698.724 446.751 695 413C711.526 408.508 715.182 401.71 717 386L714.5 349.5C714.5 349.5 713.5 341.5 710.5 340.5C707.5 339.5 705.5 340.077 702 344C700.083 353.383 700.118 358.085 702 365.5H690.5C690.5 365.5 690.5 331.5 681 321.499C671.5 311.499 654 296.499 636.5 281.999C619 267.499 593 263.499 583 265.999C573 268.499 543.814 289.242 525 313.999C509.061 340.623 506.66 354.435 506.5 378.999H492.5C484.755 365.381 477.5 367.999 479.5 378.999C481.5 389.999 489.161 410.483 494.5 423.499C500.951 433.33 505.588 436.565 516.5 436.499C522.234 468.152 527.677 478.645 539.5 490.499C544.302 516.986 539.947 527.19 524 539.999C505.305 553.244 505 550.499 481.5 562.499C458 574.499 466.5 569.499 444 575.999C421.5 582.499 415.501 579.919 405.5 582C400.067 583.131 396.068 584.078 391.5 586.499C386.033 589.397 378.575 593.189 365.5 599.999Z" fill="#DAB19F"/>
<path d="M693 371.5C695 389.5 692 404.5 696 424" stroke="url(#paint1_linear_82_134)"/>
<path d="M510 406.5L517 442" stroke="url(#paint2_linear_82_134)"/>
<path d="M440 579C429 573.5 422.721 570.829 408 562.5C429.983 572.559 442.809 577.931 468.5 586C478.994 587.156 486 582 488 579C490 576 493.435 559.884 494.5 557C495.565 554.116 475.341 569.553 456.5 573C456.5 573 447.5 576 446.5 571.5C445.5 567 446 566.5 446.5 564C447 561.5 454.5 469 456.5 450C458.5 431 463.5 389 464.5 376C465.5 363 471 331.5 474 310.5C477 289.5 495.5 242.5 511.5 222.5C527.5 202.5 556.072 185.692 581.5 186C635.556 192.215 672.5 221 692.5 259.5C712.5 298 738.903 398.545 742 426C738.348 472.039 733.351 490.073 721.5 514.5C721.5 514.5 702 558 701 559.5C700 561 697 561.5 696 563C695 564.5 696 569.5 696 573.5C696 577.5 693 588 693 588L689.5 601.5H687.5L688 598C688 598 689.5 588 689.5 584.5C689.5 581 689.5 576 688.5 572.5C687.5 569 687.5 569.5 686 564C684.5 558.5 684 546.5 684 546.5C681.32 542.949 679.803 539.219 677 521V498C677 498 665.5 512.5 654.5 523C643.5 533.5 638 537 627.5 542.5C617 548 606.272 552.491 590 555.5C590 555.5 617 545.5 626 540C635 534.5 665.458 509.607 675 492.5L677 485.5C684.632 475.983 687.058 471.78 689.5 466.5C697.499 445.873 697.108 434.419 694.5 412.5C697.172 411.964 699.322 411.509 701.138 410.983C703.5 410 703.5 410 705 409C707.5 407.5 707 408 709 406.382C709.652 405.693 710.309 404.907 711 404C712.143 402.5 712.288 402.62 712.431 402.217C714.034 397.716 715.582 395.974 716.5 384.5C715.795 380.739 715.976 376.844 715.5 368C715.358 365.358 715.599 367.908 715 360C715 356 714.746 353.701 714.5 351C714 345.5 713.879 346.992 710.5 340.5C708.1 339.664 707.093 339.933 702.5 343.5C700.021 351.432 700.838 354.147 703.433 362.776L703.5 363C703.5 363 703.5 370 700 370.5C696.5 371 694.5 370 692.5 368C691.611 367.111 690.822 366.417 690.5 365.5C690.097 364.353 690.281 363.07 690.281 363.07V361.531C690.281 360.817 690.062 360.063 690.062 360.063L689.625 357.125L688.75 351.25L687 339.5C685.509 325.33 675.593 315.277 643.5 294C592.664 259.197 574.258 261.088 529 309C522.18 319.822 515.848 328.475 509 350.5C509 350.5 507 365.5 507 375C507 384.5 508.5 387.5 508.5 393C508.5 398.5 506 401 506 401C501.803 401.347 499.489 400.942 495.5 398.5C491.511 396.058 493 393 492.5 389C492 385 492.131 381.835 492 380L491.985 379.792C491.87 378.165 491.869 378.152 491.5 377.5C489.415 374.01 487.618 372.391 484.5 370.5C482.777 369.699 481.948 369.426 480 371.5C479.276 376.906 480.364 383.53 483 390C494.445 428.237 499.5 436.5 516.5 436.5C522 463.5 524.961 475.13 539.5 490C544.5 514 540.805 525.973 530 536.5C530 536.5 520 542.5 516.5 545.5C513 548.5 513 551.5 509.5 565C506 578.5 479 596 465 591.5C451 587 451 584.5 440 579Z" fill="url(#paint3_linear_82_134)"/>
<g filter="url(#filter0_d_82_134)">
<path d="M540 489.5C556.397 504.775 581 523 590 527C599 531 624 529 630 527C636 525 654 510.5 658 507C662 503.5 674 490 674 490" stroke="url(#paint4_radial_82_134)" stroke-linecap="round" style="mix-blend-mode:darken" shape-rendering="crispEdges"/>
</g>
<g filter="url(#filter1_d_82_134)">
<path d="M571.5 466C569.5 468 569 469 569 469.5C569 470 570.5 471 573 472C575.5 473 573.5 472 578.5 474.5C583.5 477 594.5 482 599 483C603.5 484 614 483.5 618.5 482.5C623 481.5 629.563 479.41 635 474.5C640.437 469.59 642 468 644.5 465.5C647 463 646 464 648.5 462C651 460 651 460.5 651 459C651 457.5 646.5 455 644 455C641.5 455 635 453.5 627.5 455C620 456.5 611.897 460.049 613 460.5C614.103 460.951 610.319 459.366 597 459.5C583.681 459.634 573.5 464 571.5 466Z" fill="#A0514D"/>
<path d="M571.5 466C569.5 468 569 469 569 469.5C569 470 570.5 471 573 472C575.5 473 573.5 472 578.5 474.5C583.5 477 594.5 482 599 483C603.5 484 614 483.5 618.5 482.5C623 481.5 629.563 479.41 635 474.5C640.437 469.59 642 468 644.5 465.5C647 463 646 464 648.5 462C651 460 651 460.5 651 459C651 457.5 646.5 455 644 455C641.5 455 635 453.5 627.5 455C620 456.5 611.897 460.049 613 460.5C614.103 460.951 610.319 459.366 597 459.5C583.681 459.634 573.5 464 571.5 466Z" stroke="#8A4541"/>
</g>
<path d="M648.014 460.172C649.321 459.445 650 459 650 459C650 459 649.356 459.448 648.014 460.172C643.281 462.806 630.308 469.149 611.5 471.5C587.5 474.5 570 468.5 570 468.5C570 468.5 584.5 473 611.5 470C632.11 467.71 643.688 462.507 648.014 460.172Z" fill="#5F141B"/>
<path d="M599.5 496C610.627 497.302 616.387 496.996 626 495" stroke="url(#paint5_linear_82_134)"/>
<path d="M572 440.5C563.44 445.833 556 452.5 554 455.5C552 458.5 551.5 469.5 562.5 475" stroke="url(#paint6_linear_82_134)"/>
<path d="M639.5 423.5C649.214 429.533 659 435.5 660.5 439C662 442.5 663 452 659 461" stroke="url(#paint7_linear_82_134)"/>
<path d="M643 422C652.714 428.033 662.5 434 664 437.5C665.5 441 666.5 450.5 662.5 459.5" stroke="url(#paint8_linear_82_134)"/>
<path d="M591.5 440.5C594.5 438.5 601 439 606.5 442.5C602.808 443.034 598.341 442.604 591.5 440.5Z" fill="black" fill-opacity="0.4"/>
<path d="M619 438C620 436 624 432.5 628.5 432.5C624.766 434.73 621.87 436.869 619 438Z" fill="black" fill-opacity="0.4"/>
<g filter="url(#filter2_d_82_134)">
<path d="M611 383C611 383 614.5 394 616.5 397.5C617.839 399.844 622.35 411.866 626.5 418.5C629.5 422 630.5 421.5 631.5 422.5C632.5 423.5 633 427.5 633 429C633 430.5 632.156 432.364 629.5 432.5C626.844 432.636 622.5 433 619 438C619 438 616.629 440.807 615.5 442.5C614.982 443.277 614.74 443.339 614.5 443.5L614.499 443.5C614.217 443.69 613.893 443.907 612.5 444C610.944 444.104 609.5 444.5 608.5 444C607.5 443.5 606.5 442.5 606.5 442.5C601.235 439.127 595.64 438.68 590.5 440.5C585.36 442.32 584 438.5 583.5 437.5C583.087 436.674 580 431 585 425.5C585.492 424.173 586 421 586 421L589 400.5L591 386L586 375L612 371.5L611 383Z" fill="url(#paint9_linear_82_134)" shape-rendering="crispEdges"/>
<path d="M611 383C611 383 614.5 394 616.5 397.5C617.839 399.844 622.35 411.866 626.5 418.5C629.5 422 630.5 421.5 631.5 422.5C632.5 423.5 633 427.5 633 429C633 430.5 632.156 432.364 629.5 432.5C626.844 432.636 622.5 433 619 438C619 438 616.629 440.807 615.5 442.5C614.982 443.277 614.74 443.339 614.5 443.5L614.499 443.5C614.217 443.69 613.893 443.907 612.5 444C610.944 444.104 609.5 444.5 608.5 444C607.5 443.5 606.5 442.5 606.5 442.5C601.235 439.127 595.64 438.68 590.5 440.5C585.36 442.32 584 438.5 583.5 437.5C583.087 436.674 580 431 585 425.5C585.492 424.173 586 421 586 421L589 400.5L591 386L586 375L612 371.5L611 383Z" fill="url(#paint10_radial_82_134)" fill-opacity="0.05" shape-rendering="crispEdges"/>
</g>
<path d="M573.5 397C562.088 405.384 553.73 407.185 535 405" stroke="url(#paint11_linear_82_134)"/>
<path d="M632.5 392.5C647.548 393.842 655.318 392.472 668 386" stroke="url(#paint12_linear_82_134)"/>
<g filter="url(#filter3_d_82_134)">
<path d="M678 357C651.446 351.543 638.147 352.612 617 363C616.307 359.951 616 357 616 352.5C657 334.5 669.911 344.961 678 357Z" fill="#60382C"/>
</g>
<g filter="url(#filter4_d_82_134)">
<path d="M581 368.5C554.382 365.787 540.765 367.96 518.5 377.5C525.335 362.463 533.883 356.253 578.5 359C580.133 362.908 580.643 364.977 581 368.5Z" fill="#60382C"/>
</g>
<g filter="url(#filter5_di_82_134)">
<path d="M560 375.5C545.58 376.038 534 383.5 533 390.5C543.451 398.301 569.338 402.393 580 386.5C579.679 385.658 573.648 375.099 560 375.5Z" fill="url(#paint13_linear_82_134)" shape-rendering="crispEdges"/>
<path d="M560 375.5C545.58 376.038 534 383.5 533 390.5C543.451 398.301 569.338 402.393 580 386.5C579.679 385.658 573.648 375.099 560 375.5Z" stroke="url(#paint14_radial_82_134)" stroke-opacity="0.32" shape-rendering="crispEdges"/>
<path d="M560 375.5C545.58 376.038 534 383.5 533 390.5C543.451 398.301 569.338 402.393 580 386.5C579.679 385.658 573.648 375.099 560 375.5Z" stroke="black" stroke-opacity="0.34" shape-rendering="crispEdges"/>
</g>
<path d="M577.221 387.449L577.877 387.126L577.338 386.632C570.126 380.021 564.224 376.682 557.985 377.049C551.769 377.414 545.376 381.453 537.159 389.135L536.451 389.797L537.4 389.99C546.807 391.908 553.739 392.769 559.835 392.399C565.945 392.028 571.187 390.421 577.221 387.449Z" fill="#D9D9D9" stroke="black"/>
<path d="M537 393C536.253 391.971 536.057 391.339 536.5 390C544.846 391.302 549.453 391.88 557.5 392.5V393C556.101 393.735 555.604 394.232 556 395.5C554.383 394.954 553.902 394.395 554 393C552.372 393.463 551.863 393.922 552.5 395.5C550.768 394.39 550.378 393.731 550.5 392.5C549.033 393.094 548.635 393.662 548.5 395C547.809 394.096 547.662 393.557 548 392.5C546.704 393.369 546.556 393.944 546.5 395C545.618 393.912 545.272 393.276 545.5 392C543.986 392.693 543.843 393.297 544 394.5C542.865 393.248 542.499 392.585 542.5 391.5C541.465 392.315 541.417 392.905 541.5 394C540.211 393.036 539.751 392.384 539.5 391C538.97 391.871 538.996 392.461 539 393.5C538.379 392.326 538.206 391.669 538.5 390.5C537.485 391.364 537.121 391.9 537 393Z" fill="black"/>
<path d="M534 385C533 388 533.522 389.144 536 390C552.692 375.462 560.199 373.766 570.5 381.5V380.5C569.258 379.395 569.251 378.86 570 378C568.555 377.806 568.067 377.982 568 379C566.861 377.859 566.676 377.297 567.5 376.5C566.204 376.649 565.727 376.941 565.5 378C564.427 376.925 564.456 376.393 565 375.5C563.929 375.818 563.489 376.085 563.5 377C562.165 376 562.179 375.586 563 375C561.426 375.188 561.048 375.545 561 376.5C559.979 375.698 559.8 375.261 560 374.5C559.09 374.95 558.863 375.334 559.5 376.5C558.005 375.727 557.506 375.289 557 374.5C556.691 375.217 556.779 375.654 557.5 376.5C555.157 375.862 554.722 375.413 555 374.5C553.765 375.167 553.532 375.678 554.5 377C552.834 376.42 552.335 375.967 552 375C551.012 375.855 550.958 376.534 551.5 378C550 377 548.964 377.162 548 376C547.431 376.979 547.3 378.166 548.5 379.5C545.499 378.795 544.686 377.846 544 377C543.298 378.463 544.985 379.737 546.5 381C543.494 380.817 542.328 379.885 541.5 379C541.579 380.591 542.045 381.88 544 383C541.87 383.973 539.418 381.002 538.5 380C538.378 382.356 539.777 383.877 541.5 385C539.404 385.146 536.577 382.915 536 382C534.85 383.958 537.756 386.442 539 387C538.616 387.8 536.824 387.684 534 385Z" fill="black"/>
<mask id="mask0_82_134" style="mask-type:alpha" maskUnits="userSpaceOnUse" x="537" y="377" width="40" height="15">
<path d="M577 387C562.615 373.813 553.923 374.147 537.5 389.5C556.29 393.331 565.022 392.902 577 387Z" fill="white"/>
</mask>
<g mask="url(#mask0_82_134)">
<path d="M553.053 393.208C550.787 391.838 548.522 388.41 549.088 382.926C551.354 372.644 564.381 373.33 568.346 379.499C569.743 385.772 568.77 388.741 564.381 393.208C559.992 397.676 555.319 394.579 553.053 393.208Z" fill="#170D0B"/>
<circle cx="559" cy="385" r="4" fill="black"/>
<circle cx="560.5" cy="383.5" r="1.5" fill="white"/>
</g>
<g filter="url(#filter6_di_82_134)">
<path d="M637.218 365.136C651.246 361.75 664.413 365.799 667.271 372.267C659.322 382.606 635.509 393.552 620.943 381.139C621.024 380.242 623.971 368.444 637.218 365.136Z" fill="url(#paint15_linear_82_134)" shape-rendering="crispEdges"/>
<path d="M637.218 365.136C651.246 361.75 664.413 365.799 667.271 372.267C659.322 382.606 635.509 393.552 620.943 381.139C621.024 380.242 623.971 368.444 637.218 365.136Z" stroke="url(#paint16_radial_82_134)" stroke-opacity="0.32" shape-rendering="crispEdges"/>
<path d="M637.218 365.136C651.246 361.75 664.413 365.799 667.271 372.267C659.322 382.606 635.509 393.552 620.943 381.139C621.024 380.242 623.971 368.444 637.218 365.136Z" stroke="black" stroke-opacity="0.34" shape-rendering="crispEdges"/>
</g>
<path d="M623.875 381.3L623.156 381.166L623.541 380.545C628.694 372.229 633.472 367.417 639.577 366.081C645.66 364.75 652.907 366.907 662.898 372.078L663.758 372.524L662.897 372.967C654.36 377.359 647.92 380.065 641.952 381.359C635.97 382.655 630.489 382.528 623.875 381.3Z" fill="#D9D9D9" stroke="black"/>
<path d="M664.097 375.756C664.537 374.564 664.555 373.902 663.766 372.733C656.085 376.245 651.806 378.049 644.227 380.824L644.362 381.306C645.908 381.634 646.521 381.978 646.483 383.306C647.892 382.343 648.204 381.675 647.732 380.358C649.424 380.363 650.038 380.667 649.853 382.359C651.219 380.822 651.417 380.081 650.966 378.929C652.539 379.104 653.076 379.543 653.568 380.795C653.989 379.737 653.983 379.178 653.372 378.252C654.855 378.738 655.154 379.251 655.493 380.253C656.048 378.967 656.209 378.261 655.644 377.094C657.289 377.352 657.59 377.895 657.764 379.095C658.518 377.582 658.691 376.845 658.396 375.801C659.614 376.305 659.819 376.861 660.036 377.937C661.016 376.66 661.282 375.908 661.149 374.508C661.895 375.203 662.029 375.778 662.307 376.779C662.587 375.481 662.575 374.801 661.976 373.755C663.187 374.313 663.683 374.73 664.097 375.756Z" fill="black"/>
<path d="M664.819 367.243C666.594 369.86 666.401 371.102 664.248 372.597C644.243 363.121 636.558 363.52 628.735 373.754L628.464 372.791C629.36 371.392 629.223 370.874 628.269 370.249C629.607 369.671 630.124 369.709 630.465 370.671C631.253 369.264 631.278 368.673 630.269 368.129C631.557 367.922 632.096 368.073 632.601 369.031C633.343 367.706 633.171 367.202 632.405 366.489C633.522 366.505 634.018 366.643 634.255 367.527C635.269 366.203 635.144 365.808 634.195 365.466C635.761 365.221 636.222 365.463 636.527 366.369C637.292 365.32 637.346 364.851 636.948 364.173C637.946 364.36 638.269 364.668 637.971 365.963C639.2 364.815 639.563 364.257 639.836 363.361C640.327 363.968 640.361 364.412 639.896 365.422C641.978 364.173 642.276 363.623 641.761 362.819C643.131 363.127 643.493 363.556 642.919 365.091C644.366 364.082 644.724 363.511 644.784 362.489C645.967 363.044 646.203 363.684 646.078 365.241C647.251 363.873 648.293 363.748 648.906 362.369C649.719 363.157 650.166 364.264 649.372 365.873C652.07 364.382 652.596 363.249 653.027 362.248C654.099 363.467 652.82 365.15 651.703 366.776C654.548 365.786 655.418 364.573 655.975 363.497C656.33 365.05 656.23 366.417 654.651 368.024C656.965 368.384 658.522 364.861 659.134 363.648C659.89 365.883 658.954 367.725 657.599 369.273C659.656 368.846 661.774 365.933 662.082 364.896C663.719 366.47 661.594 369.647 660.547 370.522C661.134 371.188 662.828 370.591 664.819 367.243Z" fill="black"/>
<mask id="mask1_82_134" style="mask-type:alpha" maskUnits="userSpaceOnUse" x="623" y="366" width="40" height="16">
<path d="M623.966 380.808C634.244 364.22 642.702 362.189 662.668 372.522C645.617 381.296 637.095 383.247 623.966 380.808Z" fill="white"/>
</mask>
<g mask="url(#mask1_82_134)">
<path d="M652.7 380.302C654.51 378.369 655.763 374.456 653.733 369.331C648.769 360.046 636 360.5 634.266 371.245C634.5 378.5 636.36 380.256 641.795 383.369C647.229 386.482 650.89 382.235 652.7 380.302Z" fill="#170D0B"/>
<circle r="4" transform="matrix(-0.962663 0.270703 0.270703 0.962663 644.934 372.933)" fill="black"/>
<circle r="1.5" transform="matrix(-0.962663 0.270703 0.270703 0.962663 646.85 371.85)" fill="white"/>
</g>
<path d="M494.5 402C494.183 409.96 495.687 413.369 504.5 416C506.622 406.063 504.044 403.294 494.5 402Z" fill="#BA8166"/>
<path d="M489 400.5C485.13 391.416 483.5 386.355 483.5 377.5C490.527 381.867 491.516 387.096 489 400.5Z" fill="#6C433D"/>
<path d="M502.5 425C499.378 413.603 501.717 414.472 511.5 426L502.5 425Z" fill="#D9A180"/>
<path d="M704.5 373.5C702 375 703 385 707.5 387.5C712 386 714.5 374.5 704.5 373.5Z" fill="#BA8166"/>
<path d="M714.5 371C709 360.5 708 357 710.5 348C713 348 713.5 356 714.5 371Z" fill="#6C433D"/>
<path d="M695 373.5C701.559 381.903 702.218 386.794 695.5 396L695 373.5Z" fill="#D9A180"/>
</g>
<defs>
<filter id="filter0_d_82_134" x="535.5" y="489" width="143" height="48.8094" filterUnits="userSpaceOnUse" color-interpolation-filters="sRGB">
<feFlood flood-opacity="0" result="BackgroundImageFix"/>
<feColorMatrix in="SourceAlpha" type="matrix" values="0 0 0 0 0 0 0 0 0 0 0 0 0 0 0 0 0 0 127 0" result="hardAlpha"/>
<feOffset dy="4"/>
<feGaussianBlur stdDeviation="2"/>
<feComposite in2="hardAlpha" operator="out"/>
<feColorMatrix type="matrix" values="0 0 0 0 0 0 0 0 0 0 0 0 0 0 0 0 0 0 0.25 0"/>
<feBlend mode="normal" in2="BackgroundImageFix" result="effect1_dropShadow_82_134"/>
<feBlend mode="normal" in="SourceGraphic" in2="effect1_dropShadow_82_134" result="shape"/>
</filter>
<filter id="filter1_d_82_134" x="564.5" y="453.833" width="91" height="38.2118" filterUnits="userSpaceOnUse" color-interpolation-filters="sRGB">
<feFlood flood-opacity="0" result="BackgroundImageFix"/>
<feColorMatrix in="SourceAlpha" type="matrix" values="0 0 0 0 0 0 0 0 0 0 0 0 0 0 0 0 0 0 127 0" result="hardAlpha"/>
<feOffset dy="4"/>
<feGaussianBlur stdDeviation="2"/>
<feComposite in2="hardAlpha" operator="out"/>
<feColorMatrix type="matrix" values="0 0 0 0 0 0 0 0 0 0 0 0 0 0 0 0 0 0 0.25 0"/>
<feBlend mode="normal" in2="BackgroundImageFix" result="effect1_dropShadow_82_134"/>
<feBlend mode="normal" in="SourceGraphic" in2="effect1_dropShadow_82_134" result="shape"/>
</filter>
<filter id="filter2_d_82_134" x="578.18" y="371.5" width="58.8201" height="80.7471" filterUnits="userSpaceOnUse" color-interpolation-filters="sRGB">
<feFlood flood-opacity="0" result="BackgroundImageFix"/>
<feColorMatrix in="SourceAlpha" type="matrix" values="0 0 0 0 0 0 0 0 0 0 0 0 0 0 0 0 0 0 127 0" result="hardAlpha"/>
<feOffset dy="4"/>
<feGaussianBlur stdDeviation="2"/>
<feComposite in2="hardAlpha" operator="out"/>
<feColorMatrix type="matrix" values="0 0 0 0 0 0 0 0 0 0 0 0 0 0 0 0 0 0 0.25 0"/>
<feBlend mode="normal" in2="BackgroundImageFix" result="effect1_dropShadow_82_134"/>
<feBlend mode="normal" in="SourceGraphic" in2="effect1_dropShadow_82_134" result="shape"/>
</filter>
<filter id="filter3_d_82_134" x="612" y="342.831" width="70" height="28.1686" filterUnits="userSpaceOnUse" color-interpolation-filters="sRGB">
<feFlood flood-opacity="0" result="BackgroundImageFix"/>
<feColorMatrix in="SourceAlpha" type="matrix" values="0 0 0 0 0 0 0 0 0 0 0 0 0 0 0 0 0 0 127 0" result="hardAlpha"/>
<feOffset dy="4"/>
<feGaussianBlur stdDeviation="2"/>
<feComposite in2="hardAlpha" operator="out"/>
<feColorMatrix type="matrix" values="0 0 0 0 0 0 0 0 0 0 0 0 0 0 0 0 0 0 0.25 0"/>
<feBlend mode="normal" in2="BackgroundImageFix" result="effect1_dropShadow_82_134"/>
<feBlend mode="normal" in="SourceGraphic" in2="effect1_dropShadow_82_134" result="shape"/>
</filter>
<filter id="filter4_d_82_134" x="514.5" y="358.368" width="70.5" height="27.1326" filterUnits="userSpaceOnUse" color-interpolation-filters="sRGB">
<feFlood flood-opacity="0" result="BackgroundImageFix"/>
<feColorMatrix in="SourceAlpha" type="matrix" values="0 0 0 0 0 0 0 0 0 0 0 0 0 0 0 0 0 0 127 0" result="hardAlpha"/>
<feOffset dy="4"/>
<feGaussianBlur stdDeviation="2"/>
<feComposite in2="hardAlpha" operator="out"/>
<feColorMatrix type="matrix" values="0 0 0 0 0 0 0 0 0 0 0 0 0 0 0 0 0 0 0.25 0"/>
<feBlend mode="normal" in2="BackgroundImageFix" result="effect1_dropShadow_82_134"/>
<feBlend mode="normal" in="SourceGraphic" in2="effect1_dropShadow_82_134" result="shape"/>
</filter>
<filter id="filter5_di_82_134" x="527.463" y="369.989" width="58.0962" height="32.8964" filterUnits="userSpaceOnUse" color-interpolation-filters="sRGB">
<feFlood flood-opacity="0" result="BackgroundImageFix"/>
<feColorMatrix in="SourceAlpha" type="matrix" values="0 0 0 0 0 0 0 0 0 0 0 0 0 0 0 0 0 0 127 0" result="hardAlpha"/>
<feOffset/>
<feGaussianBlur stdDeviation="2.5"/>
<feComposite in2="hardAlpha" operator="out"/>
<feColorMatrix type="matrix" values="0 0 0 0 0 0 0 0 0 0 0 0 0 0 0 0 0 0 1 0"/>
<feBlend mode="normal" in2="BackgroundImageFix" result="effect1_dropShadow_82_134"/>
<feBlend mode="normal" in="SourceGraphic" in2="effect1_dropShadow_82_134" result="shape"/>
<feColorMatrix in="SourceAlpha" type="matrix" values="0 0 0 0 0 0 0 0 0 0 0 0 0 0 0 0 0 0 127 0" result="hardAlpha"/>
<feOffset/>
<feGaussianBlur stdDeviation="2"/>
<feComposite in2="hardAlpha" operator="arithmetic" k2="-1" k3="1"/>
<feColorMatrix type="matrix" values="0 0 0 0 0 0 0 0 0 0 0 0 0 0 0 0 0 0 1 0"/>
<feBlend mode="normal" in2="shape" result="effect2_innerShadow_82_134"/>
</filter>
<filter id="filter6_di_82_134" x="615.422" y="358.412" width="57.4265" height="33.7531" filterUnits="userSpaceOnUse" color-interpolation-filters="sRGB">
<feFlood flood-opacity="0" result="BackgroundImageFix"/>
<feColorMatrix in="SourceAlpha" type="matrix" values="0 0 0 0 0 0 0 0 0 0 0 0 0 0 0 0 0 0 127 0" result="hardAlpha"/>
<feOffset/>
<feGaussianBlur stdDeviation="2.5"/>
<feComposite in2="hardAlpha" operator="out"/>
<feColorMatrix type="matrix" values="0 0 0 0 0 0 0 0 0 0 0 0 0 0 0 0 0 0 1 0"/>
<feBlend mode="normal" in2="BackgroundImageFix" result="effect1_dropShadow_82_134"/>
<feBlend mode="normal" in="SourceGraphic" in2="effect1_dropShadow_82_134" result="shape"/>
<feColorMatrix in="SourceAlpha" type="matrix" values="0 0 0 0 0 0 0 0 0 0 0 0 0 0 0 0 0 0 127 0" result="hardAlpha"/>
<feOffset/>
<feGaussianBlur stdDeviation="2"/>
<feComposite in2="hardAlpha" operator="arithmetic" k2="-1" k3="1"/>
<feColorMatrix type="matrix" values="0 0 0 0 0 0 0 0 0 0 0 0 0 0 0 0 0 0 1 0"/>
<feBlend mode="normal" in2="shape" result="effect2_innerShadow_82_134"/>
</filter>
<radialGradient id="paint0_radial_82_134" cx="0" cy="0" r="1" gradientUnits="userSpaceOnUse" gradientTransform="translate(600 480) rotate(90) scale(342.5 685)">
<stop stop-color="#00FFE0"/>
<stop offset="1" stop-color="#543BEA"/>
</radialGradient>
<linearGradient id="paint1_linear_82_134" x1="690.5" y1="398" x2="698" y2="398" gradientUnits="userSpaceOnUse">
<stop/>
<stop offset="1" stop-opacity="0"/>
</linearGradient>
<linearGradient id="paint2_linear_82_134" x1="511" y1="422.5" x2="516.5" y2="421" gradientUnits="userSpaceOnUse">
<stop/>
<stop offset="1" stop-opacity="0"/>
</linearGradient>
<linearGradient id="paint3_linear_82_134" x1="563.5" y1="310" x2="579.5" y2="751.5" gradientUnits="userSpaceOnUse">
<stop stop-color="#2D201F"/>
<stop offset="1" stop-color="#6C2D1B"/>
</linearGradient>
<radialGradient id="paint4_radial_82_134" cx="0" cy="0" r="1" gradientUnits="userSpaceOnUse" gradientTransform="translate(607 509.405) rotate(87.2202) scale(20.6196 69.4062)">
<stop/>
<stop offset="1" stop-opacity="0"/>
</radialGradient>
<linearGradient id="paint5_linear_82_134" x1="613" y1="491" x2="613" y2="503.5" gradientUnits="userSpaceOnUse">
<stop/>
<stop offset="1" stop-opacity="0"/>
</linearGradient>
<linearGradient id="paint6_linear_82_134" x1="552" y1="456.5" x2="563.5" y2="460.5" gradientUnits="userSpaceOnUse">
<stop/>
<stop offset="1" stop-opacity="0"/>
</linearGradient>
<linearGradient id="paint7_linear_82_134" x1="661" y1="435.5" x2="650.5" y2="441" gradientUnits="userSpaceOnUse">
<stop/>
<stop offset="1" stop-opacity="0"/>
</linearGradient>
<linearGradient id="paint8_linear_82_134" x1="664.5" y1="434" x2="658" y2="438" gradientUnits="userSpaceOnUse">
<stop/>
<stop offset="1" stop-opacity="0"/>
</linearGradient>
<linearGradient id="paint9_linear_82_134" x1="612.5" y1="448" x2="600.5" y2="383" gradientUnits="userSpaceOnUse">
<stop stop-color="#DAB19F"/>
<stop offset="1" stop-color="#F7C4AE" stop-opacity="0"/>
</linearGradient>
<radialGradient id="paint10_radial_82_134" cx="0" cy="0" r="1" gradientUnits="userSpaceOnUse" gradientTransform="translate(603 415) rotate(81.081) scale(29.605 20.6816)">
<stop stop-color="white"/>
<stop offset="1" stop-color="white" stop-opacity="0"/>
</radialGradient>
<linearGradient id="paint11_linear_82_134" x1="555" y1="407.5" x2="554" y2="401" gradientUnits="userSpaceOnUse">
<stop/>
<stop offset="1" stop-opacity="0"/>
</linearGradient>
<linearGradient id="paint12_linear_82_134" x1="651" y1="394" x2="650" y2="389" gradientUnits="userSpaceOnUse">
<stop/>
<stop offset="1" stop-opacity="0"/>
</linearGradient>
<linearGradient id="paint13_linear_82_134" x1="556.251" y1="377.337" x2="556.251" y2="392.909" gradientUnits="userSpaceOnUse">
<stop stop-color="#8F8DA2"/>
<stop offset="1" stop-color="#56282A"/>
</linearGradient>
<radialGradient id="paint14_radial_82_134" cx="0" cy="0" r="1" gradientUnits="userSpaceOnUse" gradientTransform="translate(558.5 376) rotate(90) scale(40 85.8591)">
<stop/>
<stop offset="1" stop-opacity="0"/>
</radialGradient>
<linearGradient id="paint15_linear_82_134" x1="641.325" y1="365.89" x2="645.54" y2="380.88" gradientUnits="userSpaceOnUse">
<stop stop-color="#8F8DA2"/>
<stop offset="1" stop-color="#56282A"/>
</linearGradient>
<radialGradient id="paint16_radial_82_134" cx="0" cy="0" r="1" gradientUnits="userSpaceOnUse" gradientTransform="translate(638.798 365.211) rotate(74.2939) scale(40 85.8591)">
<stop/>
<stop offset="1" stop-opacity="0"/>
</radialGradient>
<clipPath id="clip0_82_134">
<rect width="1200" height="600" fill="white"/>
</clipPath>
</defs>
</svg>
