<svg xmlns="http://www.w3.org/2000/svg" width="100" height="100" fill="none"><g clip-path="url(#a)"><path fill="#59C3FF" d="M96.842 46.316c0 12.563-4.935 24.611-13.72 33.494C74.338 88.694 62.423 93.684 50 93.684c-12.423 0-24.338-4.99-33.122-13.874-8.785-8.883-13.72-20.931-13.72-33.494h93.684Z"/><path fill="#7342FF" d="M89.476 46.316a39.472 39.472 0 0 0-54.58-36.47 39.473 39.473 0 0 0-24.367 36.47h78.947Z"/><circle cx="50.002" cy="46.842" r="29.474" fill="#FF7A00"/><path fill="#FFA800" d="M67.956 64.729c-5.988 9.133-29.937 9.133-35.924 0-5.987-9.134 1.647-27.477 17.962-42.624 16.455 14.102 23.949 33.49 17.962 42.624Z"/><path fill="#FFF500" d="M40.246 49.678c-.964 1.626-2.632-1.349-2.632-1.349s-1.477 2.965-.339 8.894c1.138 5.928 4.552 10.672 14.793 10.672 10.242 0 10.544-1.738 12.518-5.93 1.973-4.19-.658-16.335-3.947-21.732 0 0-2.88 6.317-4.019 5.132-1.138-1.186-5.872-13.976-7.822-13.228-1.95.748-7.588 15.916-8.552 17.541Z"/></g><defs><clipPath id="a"><path fill="#fff" d="M0 0h100v100H0z"/></clipPath></defs></svg>