<svg width="884" height="370" viewBox="0 0 884 370" fill="none" xmlns="http://www.w3.org/2000/svg">
<rect width="884" height="370" fill="url(#paint0_linear_40_78)"/>
<path d="M113.895 206.585C112.032 206.585 110.602 206.087 109.605 205.09C108.608 204.093 108.11 202.642 108.11 200.735V182.535H106.42C105.033 182.535 103.95 182.167 103.17 181.43C102.433 180.693 102.065 179.632 102.065 178.245C102.065 176.858 102.433 175.818 103.17 175.125C103.95 174.388 105.033 174.02 106.42 174.02H111.425L108.11 177.075V175.255C108.11 170.488 109.258 166.892 111.555 164.465C113.895 162.038 117.362 160.587 121.955 160.11L123.775 159.915C125.205 159.742 126.332 159.915 127.155 160.435C128.022 160.912 128.607 161.562 128.91 162.385C129.213 163.165 129.278 163.988 129.105 164.855C128.975 165.722 128.65 166.458 128.13 167.065C127.653 167.672 127.003 168.018 126.18 168.105L125.01 168.17C123.017 168.3 121.63 168.777 120.85 169.6C120.07 170.38 119.68 171.528 119.68 173.045V175.19L118.25 174.02H136.645C138.508 174.02 139.938 174.562 140.935 175.645C141.932 176.685 142.43 178.223 142.43 180.26V200.28C142.43 202.317 141.932 203.877 140.935 204.96C139.982 206.043 138.552 206.585 136.645 206.585C134.782 206.585 133.352 206.043 132.355 204.96C131.358 203.877 130.86 202.317 130.86 200.28V182.535H119.68V200.735C119.68 204.635 117.752 206.585 113.895 206.585ZM136.905 168.82C134.912 168.82 133.373 168.343 132.29 167.39C131.25 166.437 130.73 165.05 130.73 163.23C130.73 161.453 131.25 160.088 132.29 159.135C133.373 158.182 134.912 157.705 136.905 157.705C138.898 157.705 140.415 158.182 141.455 159.135C142.538 160.088 143.08 161.453 143.08 163.23C143.08 165.05 142.538 166.437 141.455 167.39C140.415 168.343 138.898 168.82 136.905 168.82ZM155.094 206.585C153.187 206.585 151.714 206.087 150.674 205.09C149.677 204.093 149.179 202.642 149.179 200.735V179.22C149.179 177.357 149.655 175.927 150.609 174.93C151.605 173.933 153.014 173.435 154.834 173.435C156.654 173.435 158.04 173.933 158.994 174.93C159.947 175.927 160.424 177.357 160.424 179.22V181.885H159.774C160.207 179.285 161.312 177.227 163.089 175.71C164.909 174.193 167.162 173.392 169.849 173.305C171.105 173.262 172.037 173.587 172.644 174.28C173.294 174.93 173.64 176.165 173.684 177.985C173.684 179.545 173.359 180.78 172.709 181.69C172.059 182.6 170.824 183.142 169.004 183.315L167.509 183.445C165.212 183.662 163.544 184.312 162.504 185.395C161.464 186.435 160.944 187.995 160.944 190.075V200.735C160.944 202.642 160.445 204.093 159.449 205.09C158.452 206.087 157 206.585 155.094 206.585ZM189.785 206.715C187.878 206.715 185.928 206.563 183.935 206.26C181.985 206 180.208 205.502 178.605 204.765C177.522 204.332 176.742 203.747 176.265 203.01C175.832 202.273 175.615 201.493 175.615 200.67C175.658 199.847 175.897 199.11 176.33 198.46C176.807 197.767 177.413 197.29 178.15 197.03C178.93 196.727 179.797 196.748 180.75 197.095C182.57 197.745 184.195 198.222 185.625 198.525C187.098 198.785 188.507 198.915 189.85 198.915C191.453 198.915 192.602 198.698 193.295 198.265C193.988 197.788 194.335 197.182 194.335 196.445C194.335 195.795 194.097 195.297 193.62 194.95C193.187 194.603 192.558 194.365 191.735 194.235L184.52 193.065C181.833 192.588 179.753 191.613 178.28 190.14C176.807 188.623 176.07 186.652 176.07 184.225C176.07 181.972 176.698 180.043 177.955 178.44C179.255 176.793 181.01 175.537 183.22 174.67C185.473 173.76 188.052 173.305 190.955 173.305C192.905 173.305 194.682 173.457 196.285 173.76C197.888 174.02 199.448 174.518 200.965 175.255C201.918 175.645 202.59 176.208 202.98 176.945C203.37 177.682 203.522 178.462 203.435 179.285C203.348 180.065 203.067 180.802 202.59 181.495C202.157 182.145 201.55 182.6 200.77 182.86C199.99 183.077 199.08 183.012 198.04 182.665C196.61 182.102 195.332 181.69 194.205 181.43C193.122 181.17 192.103 181.04 191.15 181.04C189.373 181.04 188.117 181.278 187.38 181.755C186.643 182.232 186.275 182.838 186.275 183.575C186.275 184.138 186.47 184.615 186.86 185.005C187.25 185.352 187.857 185.59 188.68 185.72L195.895 186.955C198.668 187.388 200.792 188.342 202.265 189.815C203.782 191.245 204.54 193.195 204.54 195.665C204.54 199.175 203.197 201.905 200.51 203.855C197.823 205.762 194.248 206.715 189.785 206.715ZM225.744 206.715C222.494 206.715 219.807 206.217 217.684 205.22C215.604 204.223 214.044 202.728 213.004 200.735C211.964 198.698 211.444 196.163 211.444 193.13V182.535H209.234C207.847 182.535 206.764 182.167 205.984 181.43C205.247 180.693 204.879 179.632 204.879 178.245C204.879 176.858 205.247 175.818 205.984 175.125C206.764 174.388 207.847 174.02 209.234 174.02H211.444V169.99C211.444 168.083 211.942 166.632 212.939 165.635C213.935 164.638 215.365 164.14 217.229 164.14C219.092 164.14 220.522 164.638 221.519 165.635C222.515 166.632 223.014 168.083 223.014 169.99V174.02H228.344C229.774 174.02 230.857 174.388 231.594 175.125C232.374 175.818 232.764 176.858 232.764 178.245C232.764 179.632 232.374 180.693 231.594 181.43C230.857 182.167 229.774 182.535 228.344 182.535H223.014V192.74C223.014 194.343 223.382 195.535 224.119 196.315C224.899 197.052 226.112 197.42 227.759 197.42C228.365 197.42 228.95 197.355 229.514 197.225C230.077 197.095 230.597 197.03 231.074 197.03C231.767 196.987 232.33 197.203 232.764 197.68C233.197 198.113 233.414 199.132 233.414 200.735C233.414 202.035 233.219 203.14 232.829 204.05C232.439 204.917 231.745 205.545 230.749 205.935C230.142 206.152 229.319 206.325 228.279 206.455C227.239 206.628 226.394 206.715 225.744 206.715ZM260.968 218.285C259.148 218.285 257.74 217.787 256.743 216.79C255.746 215.793 255.248 214.342 255.248 212.435V179.22C255.248 177.357 255.725 175.927 256.678 174.93C257.675 173.933 259.083 173.435 260.903 173.435C262.766 173.435 264.175 173.933 265.128 174.93C266.125 175.927 266.623 177.357 266.623 179.22V182.99L265.908 179.805C266.515 177.855 267.771 176.295 269.678 175.125C271.628 173.912 273.838 173.305 276.308 173.305C279.081 173.305 281.508 173.977 283.588 175.32C285.711 176.663 287.358 178.57 288.528 181.04C289.698 183.51 290.283 186.5 290.283 190.01C290.283 193.433 289.698 196.402 288.528 198.915C287.358 201.428 285.711 203.357 283.588 204.7C281.508 206.043 279.081 206.715 276.308 206.715C273.925 206.715 271.78 206.152 269.873 205.025C267.966 203.898 266.688 202.425 266.038 200.605H266.818V212.435C266.818 214.342 266.298 215.793 265.258 216.79C264.261 217.787 262.831 218.285 260.968 218.285ZM272.668 198.2C273.838 198.2 274.856 197.918 275.723 197.355C276.633 196.748 277.348 195.86 277.868 194.69C278.388 193.477 278.648 191.917 278.648 190.01C278.648 187.107 278.085 185.027 276.958 183.77C275.831 182.47 274.401 181.82 272.668 181.82C271.498 181.82 270.458 182.102 269.548 182.665C268.638 183.228 267.923 184.117 267.403 185.33C266.883 186.5 266.623 188.06 266.623 190.01C266.623 192.87 267.186 194.95 268.313 196.25C269.44 197.55 270.891 198.2 272.668 198.2ZM311.741 206.715C308.187 206.715 305.089 206.043 302.446 204.7C299.802 203.357 297.744 201.428 296.271 198.915C294.797 196.402 294.061 193.433 294.061 190.01C294.061 187.41 294.472 185.092 295.296 183.055C296.119 180.975 297.311 179.22 298.871 177.79C300.431 176.317 302.294 175.212 304.461 174.475C306.627 173.695 309.054 173.305 311.741 173.305C315.294 173.305 318.392 173.977 321.036 175.32C323.679 176.663 325.716 178.592 327.146 181.105C328.619 183.575 329.356 186.543 329.356 190.01C329.356 192.567 328.944 194.885 328.121 196.965C327.297 199.045 326.106 200.822 324.546 202.295C323.029 203.725 321.166 204.83 318.956 205.61C316.789 206.347 314.384 206.715 311.741 206.715ZM311.741 198.2C312.911 198.2 313.951 197.918 314.861 197.355C315.771 196.748 316.464 195.86 316.941 194.69C317.461 193.477 317.721 191.917 317.721 190.01C317.721 187.107 317.157 185.027 316.031 183.77C314.904 182.47 313.474 181.82 311.741 181.82C310.571 181.82 309.531 182.102 308.621 182.665C307.711 183.228 306.996 184.117 306.476 185.33C305.956 186.5 305.696 188.06 305.696 190.01C305.696 192.87 306.259 194.95 307.386 196.25C308.512 197.55 309.964 198.2 311.741 198.2ZM347.397 206.715C345.491 206.715 343.541 206.563 341.547 206.26C339.597 206 337.821 205.502 336.217 204.765C335.134 204.332 334.354 203.747 333.877 203.01C333.444 202.273 333.227 201.493 333.227 200.67C333.271 199.847 333.509 199.11 333.942 198.46C334.419 197.767 335.026 197.29 335.762 197.03C336.542 196.727 337.409 196.748 338.362 197.095C340.182 197.745 341.807 198.222 343.237 198.525C344.711 198.785 346.119 198.915 347.462 198.915C349.066 198.915 350.214 198.698 350.907 198.265C351.601 197.788 351.947 197.182 351.947 196.445C351.947 195.795 351.709 195.297 351.232 194.95C350.799 194.603 350.171 194.365 349.347 194.235L342.132 193.065C339.446 192.588 337.366 191.613 335.892 190.14C334.419 188.623 333.682 186.652 333.682 184.225C333.682 181.972 334.311 180.043 335.567 178.44C336.867 176.793 338.622 175.537 340.832 174.67C343.086 173.76 345.664 173.305 348.567 173.305C350.517 173.305 352.294 173.457 353.897 173.76C355.501 174.02 357.061 174.518 358.577 175.255C359.531 175.645 360.202 176.208 360.592 176.945C360.982 177.682 361.134 178.462 361.047 179.285C360.961 180.065 360.679 180.802 360.202 181.495C359.769 182.145 359.162 182.6 358.382 182.86C357.602 183.077 356.692 183.012 355.652 182.665C354.222 182.102 352.944 181.69 351.817 181.43C350.734 181.17 349.716 181.04 348.762 181.04C346.986 181.04 345.729 181.278 344.992 181.755C344.256 182.232 343.887 182.838 343.887 183.575C343.887 184.138 344.082 184.615 344.472 185.005C344.862 185.352 345.469 185.59 346.292 185.72L353.507 186.955C356.281 187.388 358.404 188.342 359.877 189.815C361.394 191.245 362.152 193.195 362.152 195.665C362.152 199.175 360.809 201.905 358.122 203.855C355.436 205.762 351.861 206.715 347.397 206.715ZM383.356 206.715C380.106 206.715 377.419 206.217 375.296 205.22C373.216 204.223 371.656 202.728 370.616 200.735C369.576 198.698 369.056 196.163 369.056 193.13V182.535H366.846C365.459 182.535 364.376 182.167 363.596 181.43C362.859 180.693 362.491 179.632 362.491 178.245C362.491 176.858 362.859 175.818 363.596 175.125C364.376 174.388 365.459 174.02 366.846 174.02H369.056V169.99C369.056 168.083 369.554 166.632 370.551 165.635C371.548 164.638 372.978 164.14 374.841 164.14C376.704 164.14 378.134 164.638 379.131 165.635C380.128 166.632 380.626 168.083 380.626 169.99V174.02H385.956C387.386 174.02 388.469 174.388 389.206 175.125C389.986 175.818 390.376 176.858 390.376 178.245C390.376 179.632 389.986 180.693 389.206 181.43C388.469 182.167 387.386 182.535 385.956 182.535H380.626V192.74C380.626 194.343 380.994 195.535 381.731 196.315C382.511 197.052 383.724 197.42 385.371 197.42C385.978 197.42 386.563 197.355 387.126 197.225C387.689 197.095 388.209 197.03 388.686 197.03C389.379 196.987 389.943 197.203 390.376 197.68C390.809 198.113 391.026 199.132 391.026 200.735C391.026 202.035 390.831 203.14 390.441 204.05C390.051 204.917 389.358 205.545 388.361 205.935C387.754 206.152 386.931 206.325 385.891 206.455C384.851 206.628 384.006 206.715 383.356 206.715ZM418.58 218.285C416.76 218.285 415.352 217.787 414.355 216.79C413.359 215.793 412.86 214.342 412.86 212.435V179.22C412.86 177.357 413.337 175.927 414.29 174.93C415.287 173.933 416.695 173.435 418.515 173.435C420.379 173.435 421.787 173.933 422.74 174.93C423.737 175.927 424.235 177.357 424.235 179.22V182.99L423.52 179.805C424.127 177.855 425.384 176.295 427.29 175.125C429.24 173.912 431.45 173.305 433.92 173.305C436.694 173.305 439.12 173.977 441.2 175.32C443.324 176.663 444.97 178.57 446.14 181.04C447.31 183.51 447.895 186.5 447.895 190.01C447.895 193.433 447.31 196.402 446.14 198.915C444.97 201.428 443.324 203.357 441.2 204.7C439.12 206.043 436.694 206.715 433.92 206.715C431.537 206.715 429.392 206.152 427.485 205.025C425.579 203.898 424.3 202.425 423.65 200.605H424.43V212.435C424.43 214.342 423.91 215.793 422.87 216.79C421.874 217.787 420.444 218.285 418.58 218.285ZM430.28 198.2C431.45 198.2 432.469 197.918 433.335 197.355C434.245 196.748 434.96 195.86 435.48 194.69C436 193.477 436.26 191.917 436.26 190.01C436.26 187.107 435.697 185.027 434.57 183.77C433.444 182.47 432.014 181.82 430.28 181.82C429.11 181.82 428.07 182.102 427.16 182.665C426.25 183.228 425.535 184.117 425.015 185.33C424.495 186.5 424.235 188.06 424.235 190.01C424.235 192.87 424.799 194.95 425.925 196.25C427.052 197.55 428.504 198.2 430.28 198.2ZM465.323 206.715C461.163 206.715 458.086 205.61 456.093 203.4C454.143 201.147 453.168 197.767 453.168 193.26V165.44C453.168 163.533 453.666 162.082 454.663 161.085C455.66 160.088 457.068 159.59 458.888 159.59C460.751 159.59 462.181 160.088 463.178 161.085C464.218 162.082 464.738 163.533 464.738 165.44V192.87C464.738 194.473 465.041 195.643 465.648 196.38C466.298 197.117 467.121 197.485 468.118 197.485C468.421 197.485 468.725 197.463 469.028 197.42C469.375 197.333 469.743 197.268 470.133 197.225C470.87 197.225 471.411 197.507 471.758 198.07C472.148 198.633 472.343 199.782 472.343 201.515C472.343 203.032 472.04 204.18 471.433 204.96C470.826 205.697 469.895 206.173 468.638 206.39C468.291 206.433 467.793 206.498 467.143 206.585C466.493 206.672 465.886 206.715 465.323 206.715ZM486.881 206.715C484.411 206.715 482.222 206.26 480.316 205.35C478.452 204.44 476.979 203.205 475.896 201.645C474.856 200.042 474.336 198.222 474.336 196.185C474.336 193.845 474.942 192.003 476.156 190.66C477.369 189.317 479.319 188.363 482.006 187.8C484.692 187.193 488.267 186.89 492.731 186.89H496.306V192.35H492.731C491.041 192.35 489.632 192.48 488.506 192.74C487.422 192.957 486.621 193.325 486.101 193.845C485.581 194.322 485.321 194.95 485.321 195.73C485.321 196.727 485.667 197.55 486.361 198.2C487.097 198.85 488.137 199.175 489.481 199.175C490.564 199.175 491.517 198.937 492.341 198.46C493.207 197.983 493.901 197.333 494.421 196.51C494.941 195.643 495.201 194.647 495.201 193.52V185.98C495.201 184.42 494.789 183.315 493.966 182.665C493.186 182.015 491.821 181.69 489.871 181.69C488.831 181.69 487.661 181.82 486.361 182.08C485.061 182.297 483.609 182.708 482.006 183.315C480.836 183.748 479.839 183.813 479.016 183.51C478.192 183.207 477.542 182.687 477.066 181.95C476.632 181.213 476.416 180.412 476.416 179.545C476.459 178.678 476.741 177.855 477.261 177.075C477.824 176.295 478.669 175.688 479.796 175.255C481.876 174.475 483.782 173.955 485.516 173.695C487.292 173.435 488.917 173.305 490.391 173.305C493.944 173.305 496.869 173.825 499.166 174.865C501.506 175.862 503.239 177.422 504.366 179.545C505.536 181.625 506.121 184.312 506.121 187.605V200.735C506.121 202.642 505.666 204.093 504.756 205.09C503.846 206.087 502.524 206.585 500.791 206.585C499.014 206.585 497.649 206.087 496.696 205.09C495.786 204.093 495.331 202.642 495.331 200.735V199.045L495.721 199.955C495.504 201.342 495.006 202.533 494.226 203.53C493.446 204.527 492.427 205.307 491.171 205.87C489.914 206.433 488.484 206.715 486.881 206.715ZM529.024 206.715C525.427 206.715 522.286 206.043 519.599 204.7C516.956 203.357 514.897 201.428 513.424 198.915C511.951 196.358 511.214 193.368 511.214 189.945C511.214 187.345 511.626 185.027 512.449 182.99C513.272 180.91 514.464 179.155 516.024 177.725C517.627 176.295 519.512 175.212 521.679 174.475C523.889 173.695 526.337 173.305 529.024 173.305C530.281 173.305 531.602 173.435 532.989 173.695C534.376 173.912 535.806 174.345 537.279 174.995C538.319 175.385 539.034 175.992 539.424 176.815C539.857 177.595 540.031 178.44 539.944 179.35C539.901 180.26 539.641 181.083 539.164 181.82C538.731 182.557 538.102 183.055 537.279 183.315C536.499 183.575 535.611 183.467 534.614 182.99C533.921 182.643 533.184 182.405 532.404 182.275C531.667 182.102 530.952 182.015 530.259 182.015C529.089 182.015 528.049 182.188 527.139 182.535C526.272 182.882 525.536 183.402 524.929 184.095C524.322 184.745 523.846 185.568 523.499 186.565C523.196 187.562 523.044 188.688 523.044 189.945C523.044 192.458 523.672 194.43 524.929 195.86C526.186 197.29 527.962 198.005 530.259 198.005C530.952 198.005 531.667 197.94 532.404 197.81C533.141 197.637 533.877 197.377 534.614 197.03C535.611 196.553 536.499 196.467 537.279 196.77C538.059 197.03 538.687 197.528 539.164 198.265C539.641 199.002 539.901 199.825 539.944 200.735C539.987 201.602 539.792 202.447 539.359 203.27C538.926 204.05 538.189 204.635 537.149 205.025C535.719 205.675 534.311 206.108 532.924 206.325C531.581 206.585 530.281 206.715 529.024 206.715ZM560.979 206.715C557.079 206.715 553.699 206.043 550.839 204.7C548.022 203.313 545.855 201.363 544.339 198.85C542.822 196.337 542.064 193.368 542.064 189.945C542.064 186.652 542.779 183.77 544.209 181.3C545.682 178.787 547.675 176.837 550.189 175.45C552.745 174.02 555.649 173.305 558.899 173.305C561.282 173.305 563.449 173.695 565.399 174.475C567.349 175.212 569.017 176.317 570.404 177.79C571.79 179.22 572.83 180.953 573.524 182.99C574.26 185.027 574.629 187.302 574.629 189.815C574.629 190.682 574.39 191.332 573.914 191.765C573.437 192.155 572.679 192.35 571.639 192.35H551.749V186.89H566.179L565.139 187.735C565.139 186.132 564.922 184.832 564.489 183.835C564.055 182.838 563.405 182.08 562.539 181.56C561.715 181.04 560.675 180.78 559.419 180.78C558.075 180.78 556.905 181.105 555.909 181.755C554.955 182.362 554.219 183.272 553.699 184.485C553.179 185.698 552.919 187.215 552.919 189.035V189.62C552.919 192.697 553.59 194.907 554.934 196.25C556.32 197.55 558.444 198.2 561.304 198.2C562.257 198.2 563.34 198.092 564.554 197.875C565.81 197.615 567.002 197.268 568.129 196.835C569.255 196.402 570.23 196.337 571.054 196.64C571.877 196.9 572.505 197.377 572.939 198.07C573.415 198.72 573.675 199.478 573.719 200.345C573.762 201.168 573.567 201.992 573.134 202.815C572.7 203.595 571.985 204.202 570.989 204.635C569.472 205.328 567.847 205.848 566.114 206.195C564.424 206.542 562.712 206.715 560.979 206.715ZM585.333 206.585C583.513 206.585 582.105 206.087 581.108 205.09C580.112 204.093 579.613 202.642 579.613 200.735V165.44C579.613 163.533 580.112 162.082 581.108 161.085C582.105 160.088 583.513 159.59 585.333 159.59C587.197 159.59 588.627 160.088 589.623 161.085C590.663 162.082 591.183 163.533 591.183 165.44V179.61H590.143C591.183 177.573 592.657 176.013 594.563 174.93C596.513 173.847 598.723 173.305 601.193 173.305C603.75 173.305 605.852 173.803 607.498 174.8C609.145 175.753 610.38 177.27 611.203 179.35C612.027 181.387 612.438 183.965 612.438 187.085V200.735C612.438 202.642 611.94 204.093 610.943 205.09C609.947 206.087 608.517 206.585 606.653 206.585C604.79 206.585 603.36 206.087 602.363 205.09C601.367 204.093 600.868 202.642 600.868 200.735V187.54C600.868 185.59 600.522 184.203 599.828 183.38C599.178 182.557 598.203 182.145 596.903 182.145C595.17 182.145 593.783 182.708 592.743 183.835C591.703 184.918 591.183 186.392 591.183 188.255V200.735C591.183 204.635 589.233 206.585 585.333 206.585ZM635.217 206.715C631.664 206.715 628.566 206.043 625.922 204.7C623.279 203.357 621.221 201.428 619.747 198.915C618.274 196.402 617.537 193.433 617.537 190.01C617.537 187.41 617.949 185.092 618.772 183.055C619.596 180.975 620.787 179.22 622.347 177.79C623.907 176.317 625.771 175.212 627.937 174.475C630.104 173.695 632.531 173.305 635.217 173.305C638.771 173.305 641.869 173.977 644.512 175.32C647.156 176.663 649.192 178.592 650.622 181.105C652.096 183.575 652.832 186.543 652.832 190.01C652.832 192.567 652.421 194.885 651.597 196.965C650.774 199.045 649.582 200.822 648.022 202.295C646.506 203.725 644.642 204.83 642.432 205.61C640.266 206.347 637.861 206.715 635.217 206.715ZM635.217 198.2C636.387 198.2 637.427 197.918 638.337 197.355C639.247 196.748 639.941 195.86 640.417 194.69C640.937 193.477 641.197 191.917 641.197 190.01C641.197 187.107 640.634 185.027 639.507 183.77C638.381 182.47 636.951 181.82 635.217 181.82C634.047 181.82 633.007 182.102 632.097 182.665C631.187 183.228 630.472 184.117 629.952 185.33C629.432 186.5 629.172 188.06 629.172 190.01C629.172 192.87 629.736 194.95 630.862 196.25C631.989 197.55 633.441 198.2 635.217 198.2ZM670.289 206.715C666.129 206.715 663.052 205.61 661.059 203.4C659.109 201.147 658.134 197.767 658.134 193.26V165.44C658.134 163.533 658.632 162.082 659.629 161.085C660.626 160.088 662.034 159.59 663.854 159.59C665.717 159.59 667.147 160.088 668.144 161.085C669.184 162.082 669.704 163.533 669.704 165.44V192.87C669.704 194.473 670.007 195.643 670.614 196.38C671.264 197.117 672.087 197.485 673.084 197.485C673.387 197.485 673.691 197.463 673.994 197.42C674.341 197.333 674.709 197.268 675.099 197.225C675.836 197.225 676.377 197.507 676.724 198.07C677.114 198.633 677.309 199.782 677.309 201.515C677.309 203.032 677.006 204.18 676.399 204.96C675.792 205.697 674.861 206.173 673.604 206.39C673.257 206.433 672.759 206.498 672.109 206.585C671.459 206.672 670.852 206.715 670.289 206.715ZM692.894 206.715C690.164 206.715 687.738 206.043 685.614 204.7C683.534 203.357 681.888 201.428 680.674 198.915C679.504 196.402 678.919 193.433 678.919 190.01C678.919 186.5 679.504 183.51 680.674 181.04C681.888 178.57 683.534 176.663 685.614 175.32C687.738 173.977 690.164 173.305 692.894 173.305C695.278 173.305 697.423 173.868 699.329 174.995C701.236 176.122 702.514 177.573 703.164 179.35H702.449V165.44C702.449 163.533 702.948 162.082 703.944 161.085C704.941 160.088 706.371 159.59 708.234 159.59C710.054 159.59 711.463 160.088 712.459 161.085C713.499 162.082 714.019 163.533 714.019 165.44V200.735C714.019 202.642 713.521 204.093 712.524 205.09C711.571 206.087 710.163 206.585 708.299 206.585C706.479 206.585 705.071 206.087 704.074 205.09C703.078 204.093 702.579 202.642 702.579 200.735V197.03L703.294 200.215C702.688 202.165 701.409 203.747 699.459 204.96C697.553 206.13 695.364 206.715 692.894 206.715ZM696.599 198.2C697.769 198.2 698.809 197.918 699.719 197.355C700.629 196.748 701.323 195.86 701.799 194.69C702.319 193.477 702.579 191.917 702.579 190.01C702.579 187.107 702.016 185.027 700.889 183.77C699.763 182.47 698.333 181.82 696.599 181.82C695.429 181.82 694.389 182.102 693.479 182.665C692.569 183.228 691.854 184.117 691.334 185.33C690.814 186.5 690.554 188.06 690.554 190.01C690.554 192.87 691.118 194.95 692.244 196.25C693.371 197.55 694.823 198.2 696.599 198.2ZM738.142 206.715C734.242 206.715 730.862 206.043 728.002 204.7C725.185 203.313 723.018 201.363 721.502 198.85C719.985 196.337 719.227 193.368 719.227 189.945C719.227 186.652 719.942 183.77 721.372 181.3C722.845 178.787 724.838 176.837 727.352 175.45C729.908 174.02 732.812 173.305 736.062 173.305C738.445 173.305 740.612 173.695 742.562 174.475C744.512 175.212 746.18 176.317 747.567 177.79C748.953 179.22 749.993 180.953 750.687 182.99C751.423 185.027 751.792 187.302 751.792 189.815C751.792 190.682 751.553 191.332 751.077 191.765C750.6 192.155 749.842 192.35 748.802 192.35H728.912V186.89H743.342L742.302 187.735C742.302 186.132 742.085 184.832 741.652 183.835C741.218 182.838 740.568 182.08 739.702 181.56C738.878 181.04 737.838 180.78 736.582 180.78C735.238 180.78 734.068 181.105 733.072 181.755C732.118 182.362 731.382 183.272 730.862 184.485C730.342 185.698 730.082 187.215 730.082 189.035V189.62C730.082 192.697 730.753 194.907 732.097 196.25C733.483 197.55 735.607 198.2 738.467 198.2C739.42 198.2 740.503 198.092 741.717 197.875C742.973 197.615 744.165 197.268 745.292 196.835C746.418 196.402 747.393 196.337 748.217 196.64C749.04 196.9 749.668 197.377 750.102 198.07C750.578 198.72 750.838 199.478 750.882 200.345C750.925 201.168 750.73 201.992 750.297 202.815C749.863 203.595 749.148 204.202 748.152 204.635C746.635 205.328 745.01 205.848 743.277 206.195C741.587 206.542 739.875 206.715 738.142 206.715ZM762.691 206.585C760.785 206.585 759.311 206.087 758.271 205.09C757.275 204.093 756.776 202.642 756.776 200.735V179.22C756.776 177.357 757.253 175.927 758.206 174.93C759.203 173.933 760.611 173.435 762.431 173.435C764.251 173.435 765.638 173.933 766.591 174.93C767.545 175.927 768.021 177.357 768.021 179.22V181.885H767.371C767.805 179.285 768.91 177.227 770.686 175.71C772.506 174.193 774.76 173.392 777.446 173.305C778.703 173.262 779.635 173.587 780.241 174.28C780.891 174.93 781.238 176.165 781.281 177.985C781.281 179.545 780.956 180.78 780.306 181.69C779.656 182.6 778.421 183.142 776.601 183.315L775.106 183.445C772.81 183.662 771.141 184.312 770.101 185.395C769.061 186.435 768.541 187.995 768.541 190.075V200.735C768.541 202.642 768.043 204.093 767.046 205.09C766.05 206.087 764.598 206.585 762.691 206.585Z" fill="white"/>
<defs>
<linearGradient id="paint0_linear_40_78" x1="0" y1="0" x2="884" y2="370" gradientUnits="userSpaceOnUse">
<stop stop-color="#00FFA3"/>
<stop offset="1" stop-color="#5200FF" stop-opacity="0"/>
</linearGradient>
</defs>
</svg>
