<svg width="684" height="342" viewBox="0 0 684 342" fill="none" xmlns="http://www.w3.org/2000/svg">
<rect width="684" height="342" fill="url(#paint0_linear_40_78)"/>
<path d="M295.948 161.382C295.768 161.697 295.573 161.93 295.363 162.08C295.168 162.215 294.92 162.282 294.62 162.282C294.305 162.282 293.96 162.17 293.585 161.945C293.225 161.705 292.79 161.442 292.28 161.157C291.77 160.872 291.17 160.617 290.48 160.392C289.805 160.152 289.003 160.032 288.073 160.032C287.233 160.032 286.498 160.137 285.868 160.347C285.238 160.542 284.705 160.82 284.27 161.18C283.85 161.54 283.535 161.975 283.325 162.485C283.115 162.98 283.01 163.527 283.01 164.127C283.01 164.892 283.22 165.53 283.64 166.04C284.075 166.55 284.645 166.985 285.35 167.345C286.055 167.705 286.858 168.027 287.758 168.312C288.658 168.597 289.58 168.905 290.525 169.235C291.47 169.55 292.393 169.925 293.293 170.36C294.193 170.78 294.995 171.32 295.7 171.98C296.405 172.625 296.968 173.42 297.388 174.365C297.823 175.31 298.04 176.457 298.04 177.807C298.04 179.277 297.785 180.657 297.275 181.947C296.78 183.222 296.045 184.34 295.07 185.3C294.11 186.245 292.933 186.995 291.538 187.55C290.143 188.09 288.545 188.36 286.745 188.36C285.71 188.36 284.69 188.255 283.685 188.045C282.68 187.85 281.713 187.565 280.782 187.19C279.868 186.815 279.005 186.365 278.195 185.84C277.385 185.315 276.665 184.73 276.035 184.085L277.812 181.182C277.963 180.972 278.158 180.8 278.398 180.665C278.638 180.515 278.893 180.44 279.163 180.44C279.538 180.44 279.943 180.597 280.378 180.912C280.813 181.212 281.33 181.55 281.93 181.925C282.53 182.3 283.228 182.645 284.023 182.96C284.833 183.26 285.8 183.41 286.925 183.41C288.65 183.41 289.985 183.005 290.93 182.195C291.875 181.37 292.348 180.192 292.348 178.662C292.348 177.807 292.13 177.11 291.695 176.57C291.275 176.03 290.713 175.58 290.008 175.22C289.303 174.845 288.5 174.53 287.6 174.275C286.7 174.02 285.785 173.742 284.855 173.442C283.925 173.142 283.01 172.782 282.11 172.362C281.21 171.942 280.408 171.395 279.703 170.72C278.998 170.045 278.428 169.205 277.993 168.2C277.573 167.18 277.363 165.927 277.363 164.442C277.363 163.257 277.595 162.102 278.06 160.977C278.54 159.852 279.23 158.855 280.13 157.985C281.03 157.115 282.14 156.417 283.46 155.892C284.78 155.367 286.295 155.105 288.005 155.105C289.925 155.105 291.695 155.405 293.315 156.005C294.935 156.605 296.315 157.445 297.455 158.525L295.948 161.382ZM334.347 171.732C334.347 174.117 333.95 176.33 333.155 178.37C332.375 180.395 331.265 182.15 329.825 183.635C328.385 185.12 326.652 186.282 324.627 187.122C322.602 187.948 320.352 188.36 317.877 188.36C315.417 188.36 313.175 187.948 311.15 187.122C309.125 186.282 307.385 185.12 305.93 183.635C304.49 182.15 303.372 180.395 302.577 178.37C301.782 176.33 301.385 174.117 301.385 171.732C301.385 169.347 301.782 167.142 302.577 165.117C303.372 163.077 304.49 161.315 305.93 159.83C307.385 158.345 309.125 157.19 311.15 156.365C313.175 155.525 315.417 155.105 317.877 155.105C319.527 155.105 321.08 155.3 322.535 155.69C323.99 156.065 325.325 156.605 326.54 157.31C327.755 158 328.842 158.847 329.802 159.852C330.777 160.842 331.602 161.952 332.277 163.182C332.952 164.412 333.462 165.747 333.807 167.187C334.167 168.627 334.347 170.142 334.347 171.732ZM328.16 171.732C328.16 169.947 327.92 168.35 327.44 166.94C326.96 165.515 326.277 164.307 325.392 163.317C324.507 162.327 323.427 161.57 322.152 161.045C320.892 160.52 319.467 160.257 317.877 160.257C316.287 160.257 314.855 160.52 313.58 161.045C312.32 161.57 311.24 162.327 310.34 163.317C309.455 164.307 308.772 165.515 308.292 166.94C307.812 168.35 307.572 169.947 307.572 171.732C307.572 173.517 307.812 175.122 308.292 176.547C308.772 177.957 309.455 179.157 310.34 180.147C311.24 181.122 312.32 181.872 313.58 182.397C314.855 182.922 316.287 183.185 317.877 183.185C319.467 183.185 320.892 182.922 322.152 182.397C323.427 181.872 324.507 181.122 325.392 180.147C326.277 179.157 326.96 177.957 327.44 176.547C327.92 175.122 328.16 173.517 328.16 171.732ZM370.69 171.732C370.69 174.117 370.293 176.33 369.498 178.37C368.718 180.395 367.608 182.15 366.168 183.635C364.728 185.12 362.995 186.282 360.97 187.122C358.945 187.948 356.695 188.36 354.22 188.36C351.76 188.36 349.518 187.948 347.493 187.122C345.468 186.282 343.728 185.12 342.273 183.635C340.833 182.15 339.715 180.395 338.92 178.37C338.125 176.33 337.728 174.117 337.728 171.732C337.728 169.347 338.125 167.142 338.92 165.117C339.715 163.077 340.833 161.315 342.273 159.83C343.728 158.345 345.468 157.19 347.493 156.365C349.518 155.525 351.76 155.105 354.22 155.105C355.87 155.105 357.423 155.3 358.878 155.69C360.333 156.065 361.668 156.605 362.883 157.31C364.098 158 365.185 158.847 366.145 159.852C367.12 160.842 367.945 161.952 368.62 163.182C369.295 164.412 369.805 165.747 370.15 167.187C370.51 168.627 370.69 170.142 370.69 171.732ZM364.503 171.732C364.503 169.947 364.263 168.35 363.783 166.94C363.303 165.515 362.62 164.307 361.735 163.317C360.85 162.327 359.77 161.57 358.495 161.045C357.235 160.52 355.81 160.257 354.22 160.257C352.63 160.257 351.198 160.52 349.923 161.045C348.663 161.57 347.583 162.327 346.683 163.317C345.798 164.307 345.115 165.515 344.635 166.94C344.155 168.35 343.915 169.947 343.915 171.732C343.915 173.517 344.155 175.122 344.635 176.547C345.115 177.957 345.798 179.157 346.683 180.147C347.583 181.122 348.663 181.872 349.923 182.397C351.198 182.922 352.63 183.185 354.22 183.185C355.81 183.185 357.235 182.922 358.495 182.397C359.77 181.872 360.85 181.122 361.735 180.147C362.62 179.157 363.303 177.957 363.783 176.547C364.263 175.122 364.503 173.517 364.503 171.732ZM403.433 155.465V188H400.328C399.848 188 399.443 187.925 399.113 187.775C398.798 187.61 398.49 187.34 398.19 186.965L381.203 165.275C381.293 166.265 381.338 167.18 381.338 168.02V188H376.005V155.465H379.178C379.433 155.465 379.65 155.48 379.83 155.51C380.025 155.525 380.19 155.57 380.325 155.645C380.475 155.705 380.618 155.802 380.753 155.937C380.888 156.057 381.038 156.222 381.203 156.432L398.258 178.212C398.213 177.687 398.175 177.17 398.145 176.66C398.115 176.15 398.1 175.677 398.1 175.242V155.465H403.433Z" fill="white"/>
<defs>
<linearGradient id="paint0_linear_40_78" x1="0" y1="0" x2="715.938" y2="250.844" gradientUnits="userSpaceOnUse">
<stop stop-color="#FFA800"/>
<stop offset="1" stop-color="#5200FF"/>
</linearGradient>
</defs>
</svg>
