<svg width="980" height="425" viewBox="0 0 980 425" fill="none" xmlns="http://www.w3.org/2000/svg">
<g clip-path="url(#clip0_5_148)">
<path d="M883.718 175.258H309.142C306.702 175.258 304.363 176.227 302.637 177.952C300.912 179.677 299.943 182.017 299.943 184.457C299.943 186.896 300.912 189.236 302.637 190.961C304.363 192.686 306.702 193.655 309.142 193.655H325.417V413.721C325.417 416.161 326.386 418.5 328.111 420.225C329.836 421.951 332.176 422.92 334.616 422.92C337.056 422.92 339.395 421.951 341.12 420.225C342.846 418.5 343.815 416.161 343.815 413.721L343.955 193.655H805.11L847.63 413.721C847.63 416.161 848.599 418.5 850.325 420.225C852.05 421.951 854.389 422.92 856.829 422.92C859.269 422.92 861.609 421.951 863.334 420.225C865.059 418.5 866.028 416.161 866.028 413.721L868.704 193.655H883.718C886.158 193.655 888.498 192.686 890.223 190.961C891.948 189.236 892.917 186.896 892.917 184.457C892.917 182.017 891.948 179.677 890.223 177.952C888.498 176.227 886.158 175.258 883.718 175.258Z" fill="#CCCCCC"/>
<path d="M408.737 134.269V173.223H311.141C308.583 173.312 306.033 172.897 303.636 172C301.239 171.104 299.042 169.744 297.17 167.998C295.298 166.252 293.789 164.155 292.728 161.826C291.667 159.497 291.075 156.982 290.986 154.424C290.897 151.866 291.313 149.316 292.209 146.918C293.106 144.521 294.466 142.324 296.212 140.453C297.957 138.581 300.055 137.072 302.384 136.011C304.713 134.95 307.228 134.358 309.786 134.269C310.237 134.253 310.689 134.253 311.141 134.269L408.737 134.269Z" fill="#F2F2F2"/>
<path d="M411.134 172.924C411.134 173.321 410.976 173.702 410.695 173.983C410.415 174.264 410.034 174.422 409.636 174.422H309.403C303.961 174.418 298.744 172.254 294.898 168.405C291.052 164.556 288.891 159.337 288.891 153.896C288.891 148.455 291.052 143.236 294.898 139.387C298.744 135.538 303.961 133.374 309.403 133.37H409.636C409.833 133.369 410.029 133.408 410.211 133.483C410.393 133.558 410.559 133.668 410.698 133.807C410.838 133.946 410.948 134.112 411.024 134.294C411.1 134.476 411.138 134.671 411.138 134.868C411.138 135.065 411.1 135.26 411.024 135.442C410.948 135.624 410.838 135.79 410.698 135.929C410.559 136.068 410.393 136.178 410.211 136.253C410.029 136.328 409.833 136.367 409.636 136.366H309.403C304.758 136.373 300.306 138.223 297.025 141.51C293.743 144.797 291.9 149.251 291.9 153.896C291.9 158.54 293.743 162.995 297.025 166.282C300.306 169.569 304.758 171.419 309.403 171.426H409.636C410.034 171.426 410.415 171.584 410.695 171.865C410.976 172.146 411.134 172.527 411.134 172.924Z" fill="#59C3FF"/>
<path d="M408.737 143.258H303.859C303.78 143.259 303.704 143.228 303.647 143.172C303.591 143.116 303.559 143.041 303.558 142.961C303.557 142.882 303.588 142.806 303.643 142.749C303.699 142.692 303.774 142.66 303.854 142.659H408.737C408.816 142.66 408.892 142.692 408.947 142.748C409.003 142.804 409.034 142.88 409.034 142.959C409.034 143.038 409.003 143.113 408.947 143.169C408.892 143.226 408.816 143.258 408.737 143.258Z" fill="#CCCCCC"/>
<path d="M408.737 150.45H303.859C303.78 150.45 303.704 150.419 303.647 150.364C303.591 150.308 303.559 150.232 303.558 150.153C303.557 150.074 303.588 149.998 303.643 149.941C303.699 149.884 303.774 149.852 303.854 149.851H408.737C408.816 149.851 408.892 149.883 408.947 149.94C409.003 149.996 409.034 150.071 409.034 150.15C409.034 150.229 409.003 150.305 408.947 150.361C408.892 150.417 408.816 150.449 408.737 150.45Z" fill="#CCCCCC"/>
<path d="M408.737 157.642H303.859C303.78 157.642 303.704 157.611 303.647 157.555C303.591 157.5 303.559 157.424 303.558 157.345C303.557 157.265 303.588 157.189 303.643 157.132C303.699 157.076 303.774 157.043 303.854 157.042H408.737C408.816 157.043 408.892 157.075 408.947 157.131C409.003 157.187 409.034 157.263 409.034 157.342C409.034 157.421 409.003 157.497 408.947 157.553C408.892 157.609 408.816 157.641 408.737 157.642Z" fill="#CCCCCC"/>
<path d="M408.737 164.833H303.859C303.78 164.834 303.704 164.803 303.647 164.747C303.591 164.691 303.559 164.616 303.558 164.536C303.557 164.457 303.588 164.381 303.643 164.324C303.699 164.267 303.774 164.235 303.854 164.234H408.737C408.816 164.235 408.892 164.267 408.947 164.323C409.003 164.379 409.034 164.455 409.034 164.534C409.034 164.612 409.003 164.688 408.947 164.744C408.892 164.8 408.816 164.832 408.737 164.833Z" fill="#CCCCCC"/>
<path d="M390.339 93.2276V132.182H292.743C287.577 132.362 282.552 130.482 278.772 126.957C274.992 123.431 272.768 118.548 272.588 113.383C272.409 108.217 274.288 103.191 277.814 99.4116C281.34 95.6318 286.222 93.4073 291.388 93.2276C291.84 93.2119 292.291 93.2119 292.743 93.2276H390.339Z" fill="#F2F2F2"/>
<path d="M392.737 131.883C392.737 132.28 392.579 132.661 392.298 132.942C392.017 133.223 391.636 133.381 391.238 133.381H291.005C285.561 133.381 280.34 131.218 276.491 127.369C272.641 123.52 270.479 118.299 270.479 112.855C270.479 107.411 272.641 102.19 276.491 98.3407C280.34 94.4913 285.561 92.3287 291.005 92.3287H391.238C391.435 92.3287 391.63 92.3674 391.812 92.4427C391.994 92.518 392.159 92.6284 392.298 92.7675C392.437 92.9066 392.547 93.0718 392.623 93.2536C392.698 93.4354 392.737 93.6302 392.737 93.827C392.737 94.0237 392.698 94.2185 392.623 94.4003C392.547 94.5821 392.437 94.7472 392.298 94.8864C392.159 95.0255 391.994 95.1358 391.812 95.2111C391.63 95.2864 391.435 95.3252 391.238 95.3252H291.005C286.356 95.3252 281.897 97.1721 278.61 100.46C275.322 103.747 273.475 108.206 273.475 112.855C273.475 117.504 275.322 121.963 278.61 125.25C281.897 128.538 286.356 130.384 291.005 130.384H391.238C391.636 130.385 392.017 130.543 392.298 130.823C392.579 131.104 392.737 131.485 392.737 131.883Z" fill="#3F3D56"/>
<path d="M390.339 102.217H285.461C285.382 102.218 285.306 102.187 285.249 102.131C285.193 102.075 285.161 102 285.16 101.92C285.159 101.841 285.19 101.765 285.245 101.708C285.301 101.651 285.377 101.619 285.456 101.618H390.339C390.418 101.619 390.494 101.651 390.549 101.707C390.605 101.763 390.636 101.839 390.636 101.918C390.636 101.996 390.605 102.072 390.549 102.128C390.494 102.184 390.418 102.216 390.339 102.217Z" fill="#CCCCCC"/>
<path d="M390.339 109.409H285.461C285.382 109.409 285.306 109.378 285.249 109.323C285.193 109.267 285.161 109.191 285.16 109.112C285.159 109.033 285.19 108.956 285.245 108.9C285.301 108.843 285.377 108.811 285.456 108.81H390.339C390.418 108.81 390.494 108.842 390.549 108.898C390.605 108.954 390.636 109.03 390.636 109.109C390.636 109.188 390.605 109.264 390.549 109.32C390.494 109.376 390.418 109.408 390.339 109.409Z" fill="#CCCCCC"/>
<path d="M390.339 116.6H285.461C285.382 116.601 285.306 116.57 285.249 116.514C285.193 116.459 285.161 116.383 285.16 116.304C285.159 116.224 285.19 116.148 285.245 116.091C285.301 116.035 285.377 116.002 285.456 116.001H390.339C390.418 116.002 390.494 116.034 390.549 116.09C390.605 116.146 390.636 116.222 390.636 116.301C390.636 116.38 390.605 116.456 390.549 116.512C390.494 116.568 390.418 116.6 390.339 116.6Z" fill="#CCCCCC"/>
<path d="M390.339 123.792H285.461C285.382 123.792 285.306 123.761 285.249 123.706C285.193 123.65 285.161 123.574 285.16 123.495C285.159 123.416 285.19 123.34 285.245 123.283C285.301 123.226 285.377 123.194 285.456 123.193H390.339C390.418 123.194 390.494 123.225 390.549 123.282C390.605 123.338 390.636 123.413 390.636 123.492C390.636 123.571 390.605 123.647 390.549 123.703C390.494 123.759 390.418 123.791 390.339 123.792Z" fill="#CCCCCC"/>
<path d="M503.874 313.102V279.137C503.873 277.635 503.277 276.195 502.215 275.134C501.154 274.072 499.714 273.476 498.213 273.476H369.428C367.927 273.476 366.487 274.072 365.426 275.134C364.364 276.195 363.768 277.635 363.768 279.137V313.102H503.874Z" fill="#CCCCCC"/>
<path d="M503.874 325.839H363.768V369.71H503.874V325.839Z" fill="#CCCCCC"/>
<path d="M363.768 382.447V416.412C363.768 417.914 364.364 419.353 365.426 420.415C366.487 421.477 367.927 422.073 369.428 422.073H498.213C499.714 422.073 501.154 421.477 502.215 420.415C503.277 419.353 503.873 417.914 503.874 416.412V382.447H363.768Z" fill="#CCCCCC"/>
<path d="M433.113 298.95C435.458 298.95 437.359 297.049 437.359 294.704C437.359 292.359 435.458 290.458 433.113 290.458C430.768 290.458 428.867 292.359 428.867 294.704C428.867 297.049 430.768 298.95 433.113 298.95Z" fill="white"/>
<path d="M433.113 355.558C435.458 355.558 437.359 353.657 437.359 351.312C437.359 348.968 435.458 347.067 433.113 347.067C430.768 347.067 428.867 348.968 428.867 351.312C428.867 353.657 430.768 355.558 433.113 355.558Z" fill="white"/>
<path d="M433.34 410.968C435.685 410.968 437.586 409.067 437.586 406.722C437.586 404.377 435.685 402.477 433.34 402.477C430.996 402.477 429.095 404.377 429.095 406.722C429.095 409.067 430.996 410.968 433.34 410.968Z" fill="white"/>
<path d="M487.989 234.749V273.704H390.393C385.229 273.88 380.207 271.998 376.43 268.473C372.654 264.948 370.431 260.067 370.251 254.904C370.071 249.741 371.949 244.717 375.472 240.938C378.994 237.158 383.873 234.932 389.036 234.749C389.488 234.733 389.941 234.733 390.393 234.749H487.989Z" fill="#F2F2F2"/>
<path d="M490.386 273.404C490.386 273.801 490.228 274.182 489.947 274.463C489.666 274.744 489.285 274.902 488.888 274.902H388.655C383.212 274.903 377.992 272.743 374.142 268.896C370.291 265.049 368.127 259.831 368.123 254.388C368.12 248.946 370.279 243.725 374.124 239.873C377.97 236.022 383.187 233.855 388.63 233.85H488.888C489.085 233.849 489.28 233.888 489.463 233.963C489.645 234.038 489.811 234.148 489.95 234.287C490.09 234.426 490.2 234.592 490.276 234.774C490.351 234.956 490.39 235.151 490.39 235.348C490.39 235.545 490.351 235.74 490.276 235.922C490.2 236.104 490.09 236.27 489.95 236.409C489.811 236.548 489.645 236.658 489.463 236.733C489.28 236.808 489.085 236.847 488.888 236.846H388.655C384.009 236.852 379.557 238.702 376.274 241.989C372.992 245.276 371.148 249.731 371.148 254.376C371.148 259.021 372.992 263.476 376.274 266.763C379.557 270.05 384.009 271.9 388.655 271.906H488.888C489.285 271.906 489.666 272.064 489.947 272.345C490.228 272.626 490.386 273.007 490.386 273.404Z" fill="#3F3D56"/>
<path d="M487.989 243.738H383.111C383.032 243.739 382.956 243.708 382.899 243.652C382.843 243.596 382.81 243.521 382.81 243.441C382.809 243.362 382.84 243.286 382.895 243.229C382.951 243.172 383.026 243.14 383.105 243.139H487.989C488.068 243.14 488.144 243.172 488.199 243.228C488.255 243.284 488.286 243.36 488.286 243.439C488.286 243.518 488.255 243.593 488.199 243.649C488.144 243.706 488.068 243.738 487.989 243.738H487.989Z" fill="#CCCCCC"/>
<path d="M487.989 250.93H383.111C383.032 250.93 382.956 250.899 382.899 250.844C382.843 250.788 382.81 250.712 382.81 250.633C382.809 250.554 382.84 250.478 382.895 250.421C382.951 250.364 383.026 250.332 383.105 250.331H487.989C488.068 250.332 488.144 250.363 488.199 250.42C488.255 250.476 488.286 250.551 488.286 250.63C488.286 250.709 488.255 250.785 488.199 250.841C488.144 250.897 488.068 250.929 487.989 250.93H487.989Z" fill="#CCCCCC"/>
<path d="M487.989 258.122H383.111C383.032 258.122 382.956 258.091 382.899 258.035C382.843 257.98 382.81 257.904 382.81 257.825C382.809 257.746 382.84 257.669 382.895 257.613C382.951 257.556 383.026 257.523 383.105 257.522H487.989C488.068 257.523 488.144 257.555 488.199 257.611C488.255 257.667 488.286 257.743 488.286 257.822C488.286 257.901 488.255 257.977 488.199 258.033C488.144 258.089 488.068 258.121 487.989 258.122H487.989Z" fill="#CCCCCC"/>
<path d="M487.989 265.313H383.111C383.032 265.314 382.956 265.283 382.899 265.227C382.843 265.171 382.81 265.096 382.81 265.016C382.809 264.937 382.84 264.861 382.895 264.804C382.951 264.747 383.026 264.715 383.105 264.714H487.989C488.068 264.715 488.144 264.747 488.199 264.803C488.255 264.859 488.286 264.935 488.286 265.014C488.286 265.093 488.255 265.168 488.199 265.224C488.144 265.281 488.068 265.312 487.989 265.313H487.989Z" fill="#CCCCCC"/>
<path d="M373.367 80.2324H328.902C328.48 80.2321 328.063 80.3289 327.685 80.5155L316.462 86.1338C316.093 86.2908 315.778 86.553 315.556 86.8877C315.335 87.2224 315.217 87.6148 315.217 88.0161C315.217 88.4174 315.335 88.8098 315.556 89.1445C315.778 89.4791 316.093 89.7413 316.462 89.8983L327.685 95.5166C328.063 95.7032 328.48 95.8001 328.902 95.7997H373.367C373.98 95.8352 374.582 95.6278 375.043 95.2225C375.504 94.8172 375.787 94.2467 375.83 93.6344V82.3977C375.787 81.7854 375.504 81.2149 375.043 80.8096C374.582 80.4044 373.98 80.197 373.367 80.2324Z" fill="#3F3D56"/>
<path d="M375.83 82.3978V93.6345C375.787 94.2467 375.504 94.8173 375.043 95.2226C374.582 95.6279 373.98 95.8352 373.367 95.7998H364.509V80.2324H373.367C373.98 80.197 374.582 80.4044 375.043 80.8097C375.504 81.2149 375.787 81.7855 375.83 82.3978Z" fill="#59C3FF"/>
<path d="M106.781 300.412C112.506 302.424 118.654 302.928 124.631 301.876C130.608 300.823 136.213 298.248 140.906 294.4C152.859 284.368 156.606 267.84 159.656 252.536C162.662 237.448 165.668 222.359 168.675 207.27L149.793 220.272C136.214 229.622 122.329 239.271 112.927 252.814C103.525 266.357 99.4208 284.844 106.975 299.498" fill="#E6E6E6"/>
<path d="M108.395 355.216C106.484 341.295 104.519 327.196 105.859 313.126C107.05 300.63 110.862 288.425 118.623 278.418C122.743 273.117 127.756 268.574 133.436 264.995C134.918 264.06 136.281 266.408 134.806 267.339C124.977 273.551 117.375 282.724 113.095 293.535C108.368 305.558 107.609 318.663 108.423 331.435C108.916 339.158 109.96 346.831 111.012 354.494C111.095 354.841 111.043 355.206 110.867 355.516C110.691 355.826 110.404 356.057 110.064 356.163C109.717 356.257 109.347 356.21 109.035 356.032C108.722 355.855 108.492 355.562 108.395 355.216L108.395 355.216Z" fill="#F2F2F2"/>
<path d="M126.802 330.583C129.258 334.315 132.633 337.352 136.603 339.401C140.573 341.45 145.004 342.442 149.469 342.281C160.943 341.737 170.509 333.728 179.12 326.126L204.59 303.638L187.733 302.831C175.611 302.251 163.176 301.71 151.629 305.448C140.083 309.186 129.435 318.183 127.324 330.134" fill="#E6E6E6"/>
<path d="M102.994 363.218C112.192 346.942 122.862 328.853 141.927 323.071C147.227 321.469 152.786 320.895 158.302 321.38C160.041 321.53 159.607 324.21 157.871 324.061C148.624 323.293 139.396 325.735 131.738 330.974C124.37 335.99 118.632 342.963 113.777 350.357C110.802 354.887 108.138 359.608 105.473 364.323C104.622 365.83 102.132 364.743 102.994 363.218L102.994 363.218Z" fill="#F2F2F2"/>
<path d="M88.2552 380.35C88.5652 376.759 89.8546 373.321 91.983 370.412C94.1114 367.503 96.9972 365.234 100.326 363.852V354.442H116.108V364.148C119.273 365.598 121.997 367.862 124.002 370.708C126.007 373.554 127.222 376.881 127.522 380.35L131.233 423.488H84.5442L88.2552 380.35Z" fill="#F2F2F2"/>
<path d="M624.973 174.373L620.278 172.396L617.057 148.861H574.168L570.677 172.3L566.477 174.4C566.276 174.501 566.115 174.666 566.02 174.87C565.925 175.073 565.901 175.303 565.953 175.522C566.004 175.74 566.128 175.935 566.304 176.075C566.48 176.214 566.699 176.29 566.923 176.29H624.586C624.816 176.29 625.04 176.21 625.218 176.064C625.396 175.919 625.518 175.716 625.564 175.49C625.609 175.264 625.575 175.03 625.468 174.826C625.36 174.623 625.185 174.463 624.973 174.373Z" fill="#E6E6E6"/>
<path d="M701.19 151.992H490.507C489.402 151.99 488.342 151.549 487.561 150.766C486.781 149.984 486.342 148.924 486.342 147.818V118.109H705.354V147.818C705.354 148.924 704.916 149.984 704.135 150.766C703.354 151.549 702.295 151.99 701.19 151.992Z" fill="#CCCCCC"/>
<path d="M705.575 132.15H486.15V5.03168C486.152 3.69764 486.682 2.41868 487.625 1.47539C488.569 0.532095 489.848 0.0014927 491.182 0H700.543C701.877 0.00149268 703.156 0.532097 704.099 1.47539C705.043 2.41868 705.573 3.69763 705.575 5.03168L705.575 132.15Z" fill="#3F3D56"/>
<path d="M692.469 122.924H499.255C498.227 122.923 497.241 122.514 496.514 121.787C495.786 121.06 495.377 120.074 495.376 119.045V13.1054C495.377 12.0769 495.786 11.0908 496.514 10.3636C497.241 9.63632 498.227 9.22724 499.255 9.22606H692.469C693.498 9.22724 694.484 9.63633 695.211 10.3636C695.938 11.0908 696.347 12.0769 696.349 13.1054V119.045C696.347 120.074 695.938 121.06 695.211 121.787C694.484 122.514 693.498 122.923 692.469 122.924Z" fill="white"/>
<path d="M641.58 160.305C642.827 159.153 644.312 158.288 645.93 157.772C647.548 157.255 649.259 157.1 650.943 157.317C652.627 157.533 654.244 158.117 655.678 159.026C657.113 159.935 658.33 161.147 659.246 162.577L685.38 157.931L692.077 173.124L655.078 179.167C652.573 180.546 649.65 180.957 646.862 180.324C644.074 179.691 641.615 178.057 639.951 175.732C638.287 173.407 637.534 170.552 637.834 167.709C638.134 164.866 639.467 162.231 641.58 160.305Z" fill="#FFB6B6"/>
<path d="M665.776 179.704L693.022 179.365L696.471 179.318L751.903 178.62C751.903 178.62 766.956 164.259 780.064 149.473L778.227 136.185C776.435 123.144 769.965 111.198 760.023 102.57C741.25 115.114 730.363 139.944 730.363 139.944L695.993 148.165L692.554 148.987L671.198 154.09L665.776 179.704Z" fill="#59C3FF"/>
<path d="M805.25 261.38H754.393C754.393 263.559 698.798 265.328 698.798 265.328C697.572 266.251 696.454 267.311 695.467 268.486C692.499 272.025 690.877 276.499 690.887 281.119V284.277C690.889 289.511 692.969 294.531 696.67 298.232C700.371 301.933 705.391 304.013 710.625 304.015H805.25C810.484 304.011 815.502 301.93 819.202 298.229C822.903 294.528 824.984 289.51 824.989 284.277V281.119C824.981 275.886 822.9 270.869 819.199 267.169C815.499 263.469 810.483 261.387 805.25 261.38Z" fill="#E4E4E4"/>
<path d="M768.267 303.231H747.739V421.721H768.267V303.231Z" fill="#E4E4E4"/>
<path d="M689.312 421C689.312 423.218 720.419 421.858 758.792 421.858C797.165 421.858 828.272 423.218 828.272 421C828.272 418.781 797.165 401.193 758.792 401.193C720.419 401.193 689.312 418.782 689.312 421Z" fill="#E4E4E4"/>
<path d="M675.523 407.461L660.245 407.46L652.977 348.531L675.525 348.532L675.523 407.461Z" fill="#FFB6B6"/>
<path d="M679.419 422.27L630.156 422.268V421.645C630.157 416.56 632.177 411.683 635.773 408.088C639.369 404.492 644.245 402.472 649.331 402.471H649.332L679.42 402.473L679.419 422.27Z" fill="#2F2E41"/>
<path d="M630.368 407.461L615.09 407.46L607.822 348.531L630.37 348.532L630.368 407.461Z" fill="#FFB6B6"/>
<path d="M634.264 422.27L585.001 422.268V421.645C585.002 416.56 587.022 411.683 590.618 408.088C594.214 404.492 599.09 402.472 604.176 402.471H604.177L634.265 402.473L634.264 422.27Z" fill="#2F2E41"/>
<path d="M767.223 68.2002C781.894 68.2002 793.787 56.3071 793.787 41.6362C793.787 26.9653 781.894 15.0721 767.223 15.0721C752.552 15.0721 740.659 26.9653 740.659 41.6362C740.659 56.3071 752.552 68.2002 767.223 68.2002Z" fill="#FFB6B6"/>
<path d="M810.217 223.642C810.217 223.642 819.13 270.773 785.217 276.775C751.304 282.777 702.351 286.995 702.351 286.995L680.367 389.562L650.833 386.925C650.833 386.925 654.761 263.457 664.42 253.798C674.08 244.138 735.132 215.215 735.132 215.215L810.217 223.642Z" fill="#2F2E41"/>
<path d="M743.983 203.89L729.151 218.769C729.151 218.769 622.057 236.019 617.925 260.754C611.688 298.098 604.321 379.306 604.321 379.306L636.519 376.891L649.146 284.58L700.664 272.861L759.277 240.918L743.983 203.89Z" fill="#2F2E41"/>
<path d="M792.785 25.7794C790.163 20.8319 786.831 10.9716 781.538 9.14288C778.599 8.16828 775.561 7.52112 772.48 7.21316L763.484 10.6732L768.38 6.86524C767.427 6.80845 766.474 6.76202 765.522 6.72596L759.452 9.0605L762.557 6.64518C756.899 6.5871 751.057 7.1755 746.673 10.6204C742.935 13.5572 739.231 24.6822 738.632 29.3979C737.992 33.9092 738.216 38.501 739.292 42.9285L740.83 44.3901C741.367 43.1572 741.772 41.8703 742.036 40.5513C742.587 38.0869 743.645 35.7643 745.144 33.7315C746.642 31.6988 748.547 30.0005 750.738 28.7449L750.822 28.6977C753.4 27.2467 756.528 27.3136 759.485 27.42L773.527 27.9253C776.905 28.0468 780.543 28.2606 783.176 30.3797C784.85 31.9429 786.166 33.8496 787.035 35.969C788.343 38.6104 790.901 48.5731 790.901 48.5731C790.901 48.5731 792.348 46.6926 793.041 48.0923C794.153 44.4403 794.829 40.6696 795.056 36.8588C795.277 33.031 794.494 29.2118 792.785 25.7794Z" fill="#2F2E41"/>
<path d="M885.694 53.3018C884 53.4134 882.35 53.8951 880.862 54.7131C879.374 55.5312 878.083 56.6655 877.081 58.0363C876.079 59.4071 875.389 60.981 875.061 62.6471C874.732 64.3133 874.774 66.0311 875.181 67.6797L853.82 83.4369L860.229 98.7536L890.083 76.0777C892.807 75.2096 895.118 73.3725 896.578 70.9143C898.038 68.4562 898.546 65.5478 898.005 62.7404C897.464 59.933 895.912 57.4215 893.643 55.6819C891.374 53.9423 888.546 53.0955 885.694 53.3018Z" fill="#FFB6B6"/>
<path d="M882.256 85.4703L828.705 144.945C828.705 144.945 803.096 136.747 783.291 127.858L774.393 100.531C772.327 94.1909 771.445 87.5251 771.792 80.8662C799.248 73.5602 831.183 100.745 831.183 100.745L871.268 69.346L882.256 85.4703Z" fill="#59C3FF"/>
<path d="M757.301 228.035C747.747 224.735 737.868 221.322 727.212 220.041L726.754 219.986L726.88 219.543C737.911 180.812 735.158 156.036 729.752 118.82C728.603 110.792 730.08 102.608 733.964 95.4892C737.847 88.3701 743.929 82.6977 751.301 79.3188L751.366 79.2892L781.8 77.3553L781.87 77.351L804.004 83.8609C807.188 84.8044 809.975 86.7657 811.938 89.4445C813.901 92.1233 814.931 95.3717 814.871 98.692C814.632 110.931 815.14 124.596 815.679 139.063C816.886 171.519 818.135 205.08 811.048 226.855L811.011 226.969L810.916 227.043C804.401 232.35 796.238 235.217 787.835 235.151C777.901 235.151 767.762 231.649 757.301 228.035Z" fill="#59C3FF"/>
<path d="M978.248 424.837H1.75182C1.37649 424.837 1.01652 424.687 0.751122 424.422C0.485718 424.157 0.336609 423.797 0.336609 423.421C0.336609 423.046 0.485718 422.686 0.751122 422.421C1.01652 422.155 1.37649 422.006 1.75182 422.006H978.248C978.624 422.006 978.984 422.155 979.249 422.421C979.514 422.686 979.663 423.046 979.663 423.421C979.663 423.797 979.514 424.157 979.249 424.422C978.984 424.687 978.624 424.837 978.248 424.837Z" fill="#CCCCCC"/>
</g>
<defs>
<clipPath id="clip0_5_148">
<rect width="979.327" height="424.837" fill="white" transform="translate(0.336609)"/>
</clipPath>
</defs>
</svg>
