<svg width="1200" height="630" viewBox="0 0 1200 630" fill="none" xmlns="http://www.w3.org/2000/svg">
<g clip-path="url(#clip0_503_2)">
<rect width="1200" height="630" fill="#141414"/>
<path d="M295.082 202.875C302.048 202.875 307.94 202.647 312.758 202.191C317.576 201.671 321.449 200.499 324.379 198.676C327.374 196.788 329.522 193.988 330.824 190.277C332.191 186.566 332.875 181.488 332.875 175.043C332.875 168.467 332.191 163.292 330.824 159.516C329.522 155.74 327.374 152.908 324.379 151.02C321.449 149.066 317.576 147.862 312.758 147.406C307.94 146.885 302.048 146.625 295.082 146.625C288.897 146.625 283.591 146.755 279.164 147.016C274.737 147.211 271.026 147.667 268.031 148.383C265.102 149.034 262.758 150.01 261 151.312C259.242 152.615 257.875 154.307 256.898 156.391C255.987 158.474 255.401 161.013 255.141 164.008C254.88 167.003 254.75 170.583 254.75 174.75C254.75 178.917 254.88 182.497 255.141 185.492C255.401 188.487 255.987 191.026 256.898 193.109C257.875 195.193 259.242 196.885 261 198.188C262.758 199.49 265.102 200.499 268.031 201.215C271.026 201.866 274.737 202.322 279.164 202.582C283.591 202.777 288.897 202.875 295.082 202.875ZM392.25 184.125C392.25 190.375 391.859 195.681 391.078 200.043C390.297 204.405 388.767 207.953 386.488 210.688C384.21 213.422 381.02 215.408 376.918 216.645C372.882 217.882 367.543 218.5 360.902 218.5C356.15 218.5 352.341 217.882 349.477 216.645C346.612 215.342 344.398 213.78 342.836 211.957C341.273 210.069 340.232 208.051 339.711 205.902C339.255 203.689 339.027 201.638 339.027 199.75C337.4 203.266 334.763 206.391 331.117 209.125C329.555 210.297 327.667 211.469 325.453 212.641C323.305 213.747 320.733 214.757 317.738 215.668C314.809 216.514 311.456 217.198 307.68 217.719C303.969 218.24 299.77 218.5 295.082 218.5C286.814 218.5 279.587 218.207 273.402 217.621C267.283 216.97 262.042 215.961 257.68 214.594C253.318 213.227 249.737 211.436 246.938 209.223C244.138 207.009 241.924 204.275 240.297 201.02C238.669 197.764 237.53 193.988 236.879 189.691C236.293 185.329 236 180.349 236 174.75C236 169.151 236.293 164.203 236.879 159.906C237.53 155.544 238.669 151.736 240.297 148.48C241.924 145.225 244.138 142.491 246.938 140.277C249.737 138.064 253.318 136.273 257.68 134.906C262.042 133.539 267.283 132.562 273.402 131.977C279.587 131.326 286.814 131 295.082 131C299.118 131 302.732 131.228 305.922 131.684C309.177 132.139 312.074 132.725 314.613 133.441C317.152 134.158 319.366 135.004 321.254 135.98C323.142 136.892 324.77 137.836 326.137 138.812C329.262 141.091 331.508 143.695 332.875 146.625V134.125H351.625V184.125C351.625 188.161 351.723 191.417 351.918 193.891C352.113 196.299 352.504 198.188 353.09 199.555C353.741 200.857 354.685 201.736 355.922 202.191C357.159 202.647 358.819 202.875 360.902 202.875C363.637 202.875 365.818 202.647 367.445 202.191C369.138 201.736 370.408 200.857 371.254 199.555C372.165 198.188 372.751 196.299 373.012 193.891C373.337 191.417 373.5 188.161 373.5 184.125V156C373.5 149.75 373.077 144.346 372.23 139.789C371.449 135.167 370.017 131.228 367.934 127.973C365.85 124.717 362.986 122.081 359.34 120.062C355.759 118.044 351.202 116.449 345.668 115.277C340.134 114.105 333.493 113.324 325.746 112.934C317.999 112.478 308.917 112.25 298.5 112.25C287.042 112.25 277.081 112.413 268.617 112.738C260.154 113.064 252.895 113.91 246.84 115.277C240.85 116.579 235.935 118.565 232.094 121.234C228.253 123.904 225.225 127.549 223.012 132.172C220.863 136.794 219.366 142.589 218.52 149.555C217.738 156.456 217.348 164.854 217.348 174.75C217.348 184.125 217.771 192.198 218.617 198.969C219.464 205.674 220.961 211.339 223.109 215.961C225.323 220.583 228.35 224.294 232.191 227.094C236.033 229.893 240.948 232.042 246.938 233.539C252.927 235.036 260.154 236.013 268.617 236.469C277.081 236.99 307.842 237.25 360.902 237.25V252.875H298.5C283.917 252.875 271.319 252.159 260.707 250.727C250.095 249.359 241.078 247.243 233.656 244.379C226.299 241.579 220.31 238.031 215.688 233.734C211.065 229.438 207.484 224.392 204.945 218.598C202.406 212.803 200.681 206.26 199.77 198.969C198.923 191.677 198.5 183.604 198.5 174.75C198.5 164.333 198.923 155.186 199.77 147.309C200.681 139.366 202.406 132.497 204.945 126.703C207.484 120.909 211.065 116.091 215.688 112.25C220.31 108.409 226.299 105.349 233.656 103.07C241.078 100.727 250.095 99.0664 260.707 98.0898C271.319 97.1133 283.917 96.625 298.5 96.625C311 96.625 322.003 97.0807 331.508 97.9922C341.013 98.9036 349.216 100.336 356.117 102.289C363.083 104.242 368.878 106.781 373.5 109.906C378.122 113.031 381.801 116.807 384.535 121.234C387.335 125.596 389.906 146.56 392.25 184.125ZM454.75 132.758V231H436V132.758H417.25V118.5H436V117.523C436 109.906 436.846 103.559 438.539 98.4805C440.232 93.4023 443.031 89.3333 446.938 86.2734C450.844 83.2135 455.987 81.0651 462.367 79.8281C468.812 78.526 476.723 77.875 486.098 77.875H507.875V93.5H486C480.076 93.5 475.128 93.6302 471.156 93.8906C467.185 94.151 463.962 95.0299 461.488 96.5273C459.079 98.0247 457.354 100.401 456.312 103.656C455.271 106.911 454.75 111.534 454.75 117.523V118.5H507.875V132.758H454.75ZM517.25 173.969C517.25 162.445 518.487 152.908 520.961 145.355C523.435 137.803 527.406 131.814 532.875 127.387C538.344 122.96 545.44 119.867 554.164 118.109C562.888 116.286 573.5 115.375 586 115.375C598.5 115.375 609.112 116.286 617.836 118.109C626.56 119.867 633.656 122.96 639.125 127.387C644.594 131.814 648.565 137.803 651.039 145.355C653.513 152.908 654.75 162.445 654.75 173.969C654.75 185.492 653.513 195.062 651.039 202.68C648.565 210.297 644.594 216.352 639.125 220.844C633.656 225.336 626.56 228.526 617.836 230.414C609.112 232.237 598.5 233.148 586 233.148C573.5 233.148 562.888 232.237 554.164 230.414C545.44 228.526 538.344 225.336 532.875 220.844C527.406 216.352 523.435 210.297 520.961 202.68C518.487 195.062 517.25 185.492 517.25 173.969ZM536 173.969C536 180.219 536.228 185.655 536.684 190.277C537.139 194.9 537.986 198.871 539.223 202.191C540.525 205.512 542.315 208.214 544.594 210.297C546.872 212.38 549.867 214.04 553.578 215.277C557.289 216.514 561.781 217.361 567.055 217.816C572.393 218.272 578.708 218.5 586 218.5C592.25 218.5 597.816 218.37 602.699 218.109C607.647 217.784 611.944 217.1 615.59 216.059C619.301 215.017 622.458 213.552 625.062 211.664C627.667 209.711 629.75 207.074 631.312 203.754C632.94 200.434 634.112 196.365 634.828 191.547C635.609 186.664 636 180.805 636 173.969C636 167.263 635.609 161.566 634.828 156.879C634.112 152.126 632.94 148.155 631.312 144.965C629.75 141.775 627.667 139.268 625.062 137.445C622.458 135.557 619.301 134.158 615.59 133.246C611.944 132.27 607.647 131.651 602.699 131.391C597.816 131.13 592.25 131 586 131C579.75 131 574.151 131.13 569.203 131.391C564.32 131.651 560.023 132.27 556.312 133.246C552.667 134.158 549.542 135.557 546.938 137.445C544.333 139.268 542.217 141.775 540.59 144.965C539.027 148.155 537.855 152.126 537.074 156.879C536.358 161.566 536 167.263 536 173.969ZM789.125 231V168.5C789.125 161.534 788.604 155.674 787.562 150.922C786.521 146.104 784.438 142.23 781.312 139.301C778.188 136.371 773.76 134.255 768.031 132.953C762.302 131.651 754.75 131 745.375 131C735.219 131 726.885 131.749 720.375 133.246C713.93 134.743 708.852 136.859 705.141 139.594C701.43 142.328 698.858 145.616 697.426 149.457C696.059 153.298 695.375 157.562 695.375 162.25V231H676.625V118.5H695.375V137.25C696.742 134.06 698.695 131.326 701.234 129.047C703.773 126.703 706.638 124.717 709.828 123.09C713.018 121.462 716.469 120.16 720.18 119.184C723.891 118.142 727.602 117.361 731.312 116.84C735.023 116.254 738.604 115.863 742.055 115.668C745.57 115.473 748.76 115.375 751.625 115.375C759.958 115.375 767.12 115.896 773.109 116.938C779.164 117.979 784.275 119.509 788.441 121.527C792.673 123.546 796.059 126.052 798.598 129.047C801.137 132.042 803.09 135.525 804.457 139.496C805.889 143.402 806.833 147.797 807.289 152.68C807.745 157.497 807.973 162.771 807.973 168.5L807.875 231H789.125ZM942.445 181C942.445 190.57 941.664 198.578 940.102 205.023C938.539 211.404 935.902 216.514 932.191 220.355C928.546 224.197 923.728 226.931 917.738 228.559C911.749 230.186 904.359 231 895.57 231C887.042 231 879.88 230.349 874.086 229.047C868.292 227.745 863.604 225.531 860.023 222.406C856.443 219.281 853.871 215.115 852.309 209.906C850.746 204.698 849.965 198.188 849.965 190.375V133.93H826.82V118.5H849.965V87.7383H868.715V118.5H939.32V133.93H868.715V190.375C868.715 196.625 869.171 201.443 870.082 204.828C871.059 208.214 872.589 210.688 874.672 212.25C876.755 213.812 879.49 214.724 882.875 214.984C886.326 215.245 890.525 215.375 895.473 215.375C899.379 215.375 902.862 215.31 905.922 215.18C909.047 215.049 911.749 214.659 914.027 214.008C916.371 213.292 918.357 212.25 919.984 210.883C921.612 209.451 922.914 207.465 923.891 204.926C924.932 202.387 925.681 199.197 926.137 195.355C926.592 191.449 926.82 186.664 926.82 181H942.445ZM967.445 165.375H1042.45V181H967.445V165.375Z" fill="white"/>
<path d="M732.471 294.077C732.471 294.077 748.822 313.262 756.453 354.241C756.453 354.241 745.135 351.843 741.843 378.002C738.55 404.161 766.04 427.485 766.04 427.485C766.04 427.485 773.892 433.591 752.308 452.771C752.308 452.771 748.385 454.517 754.491 470.016C756.706 475.632 756.533 479.215 755.391 481.71C753.559 485.704 749.177 485.553 747.948 490.069C747.555 491.906 747.433 493.791 747.587 495.663C747.781 497.97 748.304 498.896 748.126 500.664C747.921 502.383 747.229 504.008 746.132 505.347C744.862 506.957 743.806 508.725 742.99 510.607C740.237 517.004 741.169 522.862 741.406 525.605C742.408 537.267 735.888 548.39 734.001 550.26C725.778 558.409 708.306 560.996 670.991 548.272C604.506 525.605 552.624 526.473 552.624 526.473L527.554 465.85L480.043 373.205L641.351 257.457L708.715 255.496L734.659 275.549L732.471 294.077Z" fill="#D69862"/>
<path d="M670.997 548.25C670.997 548.25 657.702 556.334 655.304 569.613C652.906 582.892 648.982 573.105 648.982 573.105L509.905 562.418C509.905 562.418 525.603 529.943 521.459 500.513L520.149 439.039C520.149 439.039 517.099 429.01 553.724 459.313C553.724 459.313 553.724 507.271 670.997 548.25Z" fill="#D09059"/>
<path d="M732.471 294.076C732.471 294.076 708.058 266.258 691.928 267.998C691.928 267.998 650.971 275.333 638.737 294.076C626.504 312.82 636.108 325.905 629.139 329.391C622.171 332.878 595.576 336.802 594.266 347.715C592.957 358.628 593.84 392.17 589.906 396.093C584.555 401.444 573.443 400.943 566.663 398.071C564.955 397.349 562.152 395.182 556.553 390.86C545.694 382.464 544.756 380.685 540.86 379.742C533.315 377.915 526.606 382.07 525.819 382.577C516.35 388.613 515.364 400.194 515.137 403.056C514.598 410.062 516.63 415.731 519.061 422.457C521.788 430.001 524.127 432.453 525.603 439.896C526.426 443.694 526.72 447.588 526.476 451.466C524.725 471.53 532.404 495.916 526.697 497.894C524.089 498.799 520.58 495.199 517.757 492.009C491.56 462.191 493.893 428.751 471.108 411.571C466.716 408.262 458.934 403.702 446.043 402.199C446.043 402.199 443.861 355.987 446.043 348.577C448.226 341.167 442.12 312.825 429.908 288.412C429.908 288.412 444.297 246.991 472.633 262.254C472.633 262.254 484.845 267.271 501.411 258.875C517.977 250.478 522.768 196.856 522.768 196.856C522.768 196.856 544.568 213.401 539.771 233.039C539.771 233.039 618.248 205.813 640.478 199.906C662.708 194 738.561 214.732 744.241 287.103L732.471 294.076Z" fill="#B39363"/>
<path d="M487.89 563.512C487.89 563.512 549.364 553.046 554.591 563.512C554.591 563.512 650.518 559.589 658.354 573.972C658.354 573.972 651.817 588.798 653.126 594.898C654.436 600.999 647.894 630.65 647.894 630.65H473.937C473.937 630.65 470.057 620.518 482.441 605.801C497.483 587.946 487.911 563.286 487.89 563.512Z" fill="#2E2A26"/>
</g>
<defs>
<clipPath id="clip0_503_2">
<rect width="1200" height="630" fill="white"/>
</clipPath>
</defs>
</svg>
